<svg width="401.51" xmlns="http://www.w3.org/2000/svg" height="53.848" fill="none"><g data-testid="Board"><defs><clipPath id="a" class="frame-clip frame-clip-def"><rect rx="0" ry="0" width="401.51" height="53.848"/></clipPath></defs><g clip-path="url(#a)"><g class="fills"><rect rx="0" ry="0" width="401.51" height="53.848" class="frame-background"/></g><g class="frame-children"><path d="m4.034 12.145 24.885-1.8-1.395 11.7-11.34.45-.495 3.51 9.45-.585.63 9.45-9.495.585-.45 11.52-11.475.27-.315-35.1ZM55.689 43.33c-1.08 1.08-2.4 2.025-3.96 2.835-1.53.81-3.18 1.425-4.95 1.845-1.77.42-3.6.615-5.49.585-1.86-.03-3.66-.36-5.4-.99-1.71-.6-3.285-1.53-4.725-2.79-1.44-1.26-2.61-2.895-3.51-4.905-1.02-2.25-1.62-4.485-1.8-6.705-.21-2.22-.075-4.35.405-6.39.48-2.07 1.26-4.02 2.34-5.85a23.147 23.147 0 0 1 3.915-4.95c1.53-1.5 3.24-2.79 5.13-3.87a25.918 25.918 0 0 1 6.12-2.475c2.04-.51 3.945-.66 5.715-.45 1.8.18 3.42.6 4.86 1.26 1.44.66 2.655 1.47 3.645 2.43 1.02.93 1.785 1.875 2.295 2.835.93 1.8 1.62 3.84 2.07 6.12.48 2.25.585 4.59.315 7.02-.24 2.43-.915 4.89-2.025 7.38-1.11 2.46-2.76 4.815-4.95 7.065Zm-5.985-19.17c-.45-.96-1.095-1.65-1.935-2.07-.81-.42-1.695-.6-2.655-.54-.96.06-1.935.345-2.925.855-.99.48-1.89 1.17-2.7 2.07-.81.87-1.485 1.935-2.025 3.195-.51 1.26-.765 2.655-.765 4.185-.03 1.44.165 2.61.585 3.51.45.9 1.005 1.575 1.665 2.025.69.42 1.47.66 2.34.72a6.86 6.86 0 0 0 2.565-.405c.87-.3 1.68-.735 2.43-1.305.75-.6 1.38-1.29 1.89-2.07.75-1.17 1.29-2.25 1.62-3.24.36-1.02.57-1.95.63-2.79.09-.84.06-1.605-.09-2.295a7.837 7.837 0 0 0-.63-1.845Zm42.735 16.425-6.975 7.875-10.935-8.055-.135 7.695-10.89-1.125-.72-35.145c5.7-.66 9.87-1.11 12.51-1.35l3.96-.405c2.82-.3 5.16-.09 7.02.63 1.89.72 3.315 1.77 4.275 3.15.99 1.35 1.545 2.94 1.665 4.77.15 1.8-.105 3.66-.765 5.58-.66 1.89-1.71 3.735-3.15 5.535-1.41 1.8-3.165 3.36-5.265 4.68l9.405 6.165ZM73.854 21.91l-.45 7.2c1.08-.24 2.01-.585 2.79-1.035.81-.45 1.485-.93 2.025-1.44.54-.51.945-.99 1.215-1.44.3-.48.48-.855.54-1.125 0-.03.015-.195.045-.495s-.015-.66-.135-1.08c-.09-.42-.345-.765-.765-1.035-.39-.3-1.005-.435-1.845-.405-.84 0-1.98.285-3.42.855Zm49.902-5.22-7.875 9.675c-1.62-1.71-3.045-2.805-4.275-3.285-1.2-.48-2.25-.585-3.15-.315-.87.24-1.605.765-2.205 1.575-.6.78-1.08 1.59-1.44 2.43-.36.81-.615 1.545-.765 2.205l-.225.99c0 .06.06.45.18 1.17.15.72.465 1.53.945 2.43a4.713 4.713 0 0 0 2.115 1.935c.93.42 2.175.36 3.735-.18 1.59-.54 3.54-1.875 5.85-4.005l8.775 9.36c-.45.87-1.23 1.755-2.34 2.655-1.11.9-2.43 1.725-3.96 2.475-1.53.75-3.21 1.365-5.04 1.845-1.83.51-3.705.795-5.625.855-1.89.09-3.765-.105-5.625-.585-1.83-.48-3.525-1.32-5.085-2.52-2.25-1.74-3.915-3.66-4.995-5.76-1.08-2.1-1.725-4.26-1.935-6.48-.21-2.22-.03-4.44.54-6.66a28.8 28.8 0 0 1 2.295-6.255 27.443 27.443 0 0 1 3.555-5.265c1.38-1.56 2.775-2.805 4.185-3.735l.9-.495c.6-.33 1.425-.645 2.475-.945 1.05-.33 2.28-.555 3.69-.675 1.44-.15 2.985-.015 4.635.405 1.68.39 3.42 1.14 5.22 2.25 1.83 1.11 3.645 2.745 5.445 4.905Zm2.927-4.5 24.84-1.845-1.395 11.385-11.295.495-.045 2.16 8.19-.585-.945 7.875-7.515.585-.09 2.475 12.87-1.215-.225 12.42-24.075 1.305-.315-35.055Zm67.302 31.14c-1.08 1.08-2.4 2.025-3.96 2.835-1.53.81-3.18 1.425-4.95 1.845-1.77.42-3.6.615-5.49.585-1.86-.03-3.66-.36-5.4-.99-1.71-.6-3.285-1.53-4.725-2.79-1.44-1.26-2.61-2.895-3.51-4.905-1.02-2.25-1.62-4.485-1.8-6.705-.21-2.22-.075-4.35.405-6.39.48-2.07 1.26-4.02 2.34-5.85a23.147 23.147 0 0 1 3.915-4.95c1.53-1.5 3.24-2.79 5.13-3.87a25.918 25.918 0 0 1 6.12-2.475c2.04-.51 3.945-.66 5.715-.45 1.8.18 3.42.6 4.86 1.26 1.44.66 2.655 1.47 3.645 2.43 1.02.93 1.785 1.875 2.295 2.835.93 1.8 1.62 3.84 2.07 6.12.48 2.25.585 4.59.315 7.02-.24 2.43-.915 4.89-2.025 7.38-1.11 2.46-2.76 4.815-4.95 7.065ZM188 24.16c-.45-.96-1.095-1.65-1.935-2.07-.81-.42-1.695-.6-2.655-.54-.96.06-1.935.345-2.925.855-.99.48-1.89 1.17-2.7 2.07-.81.87-1.485 1.935-2.025 3.195-.51 1.26-.765 2.655-.765 4.185-.03 1.44.165 2.61.585 3.51.45.9 1.005 1.575 1.665 2.025.69.42 1.47.66 2.34.72a6.86 6.86 0 0 0 2.565-.405c.87-.3 1.68-.735 2.43-1.305.75-.6 1.38-1.29 1.89-2.07.75-1.17 1.29-2.25 1.62-3.24.36-1.02.57-1.95.63-2.79.09-.84.06-1.605-.09-2.295a7.837 7.837 0 0 0-.63-1.845Zm42.736 16.425-6.975 7.875-10.935-8.055-.135 7.695-10.89-1.125-.72-35.145c5.7-.66 9.87-1.11 12.51-1.35l3.96-.405c2.82-.3 5.16-.09 7.02.63 1.89.72 3.315 1.77 4.275 3.15.99 1.35 1.545 2.94 1.665 4.77.15 1.8-.105 3.66-.765 5.58-.66 1.89-1.71 3.735-3.15 5.535-1.41 1.8-3.165 3.36-5.265 4.68l9.405 6.165ZM212.151 21.91l-.45 7.2c1.08-.24 2.01-.585 2.79-1.035.81-.45 1.485-.93 2.025-1.44.54-.51.945-.99 1.215-1.44.3-.48.48-.855.54-1.125 0-.03.015-.195.045-.495s-.015-.66-.135-1.08c-.09-.42-.345-.765-.765-1.035-.39-.3-1.005-.435-1.845-.405-.84 0-1.98.285-3.42.855Zm35.366-14.175 22.725 34.56-14.13 5.355-3.78-6.3-9.45.315-1.845 6.75-13.545-4.41 20.025-36.27Zm-2.295 26.775 5.355-.945-2.25-6.12-3.105 7.065Zm25.047-24.165 17.19 14.265.405-14.895 13.41.9-2.07 34.335-17.235-8.595.63 10.62-12.915.81.585-37.44ZM328.667 24.7c-.42-1.02-1.095-1.755-2.025-2.205-.9-.48-1.92-.72-3.06-.72-1.11 0-2.265.24-3.465.72-1.2.48-2.295 1.155-3.285 2.025-.99.87-1.815 1.935-2.475 3.195-.63 1.26-.945 2.685-.945 4.275-.03 1.47.195 2.655.675 3.555.51.87 1.14 1.5 1.89 1.89.78.39 1.635.57 2.565.54a8.19 8.19 0 0 0 2.745-.675c.9-.42 1.71-.96 2.43-1.62.75-.69 1.305-1.47 1.665-2.34l-6.39 1.215.72-7.245 19.62-2.475c.27 1.89.18 3.765-.27 5.625-.42 1.83-1.02 3.51-1.8 5.04a33.417 33.417 0 0 1-2.385 4.14c-.84 1.2-1.545 2.115-2.115 2.745-.54.63-.84.975-.9 1.035-1.08 1.08-2.4 2.025-3.96 2.835-1.53.81-3.18 1.425-4.95 1.845-1.77.42-3.6.6-5.49.54-1.89-.03-3.69-.36-5.4-.99-1.71-.6-3.3-1.53-4.77-2.79-1.44-1.26-2.61-2.895-3.51-4.905-1.02-2.25-1.605-4.485-1.755-6.705-.15-2.25.03-4.41.54-6.48.51-2.1 1.32-4.08 2.43-5.94a24.21 24.21 0 0 1 4.05-4.995c1.59-1.5 3.36-2.775 5.31-3.825 1.95-1.05 4.005-1.8 6.165-2.25.06 0 .375-.03.945-.09.6-.09 1.455-.105 2.565-.045 1.11.06 2.355.285 3.735.675 1.38.36 2.88.99 4.5 1.89 1.62.87 3.225 2.085 4.815 3.645l-8.415 8.865Zm11.854-12.51 24.84-1.845-1.395 11.385-11.295.495-.045 2.16 8.19-.585-.945 7.875-7.515.585-.09 2.475 12.87-1.215-.225 12.42-24.075 1.305-.315-35.055Zm43.956 36.225c-.93-.33-1.77-.765-2.52-1.305a8.185 8.185 0 0 1-1.8-1.71 6.001 6.001 0 0 1-.945-1.98c-.15-.69-.105-1.35.135-1.98.21-.63.585-1.17 1.125-1.62.54-.45 1.185-.78 1.935-.99.78-.21 1.62-.285 2.52-.225.9.03 1.815.195 2.745.495.93.33 1.755.765 2.475 1.305.75.51 1.35 1.08 1.8 1.71.48.63.795 1.29.945 1.98.15.69.12 1.35-.09 1.98a3.27 3.27 0 0 1-1.125 1.575c-.54.45-1.2.78-1.98.99-.75.24-1.575.345-2.475.315a9.09 9.09 0 0 1-2.745-.54Zm8.64-10.53c-.78-.54-1.68-.975-2.7-1.305-.99-.36-2.055-.585-3.195-.675a12.508 12.508 0 0 0-3.195.135c-.99.15-1.905.42-2.745.81l2.385-31.14 13.32-.54-3.87 32.715Z" style="fill: rgb(255, 138, 0);" class="fills" data-testid="svg-path"/><g data-testid="svg-path"><defs><mask width="403" maskUnits="userSpaceOnUse" height="55" x="-.631" id="b" data-old-y="-.98" data-old-width="403" data-old-x="-.631" fill="#000" y="-.98" data-old-height="55"><g class="svg-mask-wrapper" transform="translate(3.369 5.02)"><rect fill="#fff" x="-4" y="-6" width="403" height="55"/><path d="m.665 7.125 24.885-1.8-1.395 11.7-11.34.45-.495 3.51 9.45-.585.63 9.45-9.495.585-.45 11.52-11.475.27-.315-35.1ZM52.32 38.31c-1.08 1.08-2.4 2.025-3.96 2.835-1.53.81-3.18 1.425-4.95 1.845-1.77.42-3.6.615-5.49.585-1.86-.03-3.66-.36-5.4-.99-1.71-.6-3.285-1.53-4.725-2.79-1.44-1.26-2.61-2.895-3.51-4.905-1.02-2.25-1.62-4.485-1.8-6.705-.21-2.22-.075-4.35.405-6.39.48-2.07 1.26-4.02 2.34-5.85a23.147 23.147 0 0 1 3.915-4.95c1.53-1.5 3.24-2.79 5.13-3.87a25.918 25.918 0 0 1 6.12-2.475c2.04-.51 3.945-.66 5.715-.45 1.8.18 3.42.6 4.86 1.26 1.44.66 2.655 1.47 3.645 2.43 1.02.93 1.785 1.875 2.295 2.835.93 1.8 1.62 3.84 2.07 6.12.48 2.25.585 4.59.315 7.02-.24 2.43-.915 4.89-2.025 7.38-1.11 2.46-2.76 4.815-4.95 7.065Zm-5.985-19.17c-.45-.96-1.095-1.65-1.935-2.07-.81-.42-1.695-.6-2.655-.54-.96.06-1.935.345-2.925.855-.99.48-1.89 1.17-2.7 2.07-.81.87-1.485 1.935-2.025 3.195-.51 1.26-.765 2.655-.765 4.185-.03 1.44.165 2.61.585 3.51.45.9 1.005 1.575 1.665 2.025.69.42 1.47.66 2.34.72a6.86 6.86 0 0 0 2.565-.405c.87-.3 1.68-.735 2.43-1.305.75-.6 1.38-1.29 1.89-2.07.75-1.17 1.29-2.25 1.62-3.24.36-1.02.57-1.95.63-2.79.09-.84.06-1.605-.09-2.295a7.837 7.837 0 0 0-.63-1.845Zm42.736 16.425-6.975 7.875-10.935-8.055-.135 7.695-10.89-1.125-.72-35.145c5.7-.66 9.87-1.11 12.51-1.35l3.96-.405c2.82-.3 5.16-.09 7.02.63 1.89.72 3.315 1.77 4.275 3.15.99 1.35 1.545 2.94 1.665 4.77.15 1.8-.105 3.66-.765 5.58-.66 1.89-1.71 3.735-3.15 5.535-1.41 1.8-3.165 3.36-5.265 4.68l9.405 6.165ZM70.486 16.89l-.45 7.2c1.08-.24 2.01-.585 2.79-1.035.81-.45 1.485-.93 2.025-1.44.54-.51.945-.99 1.215-1.44.3-.48.48-.855.54-1.125 0-.03.015-.195.045-.495s-.015-.66-.135-1.08c-.09-.42-.345-.765-.765-1.035-.39-.3-1.005-.435-1.845-.405-.84 0-1.98.285-3.42.855Zm49.901-5.22-7.875 9.675c-1.62-1.71-3.045-2.805-4.275-3.285-1.2-.48-2.25-.585-3.15-.315-.87.24-1.605.765-2.205 1.575-.6.78-1.08 1.59-1.44 2.43-.36.81-.615 1.545-.765 2.205l-.225.99c0 .06.06.45.18 1.17.15.72.465 1.53.945 2.43a4.713 4.713 0 0 0 2.115 1.935c.93.42 2.175.36 3.735-.18 1.59-.54 3.54-1.875 5.85-4.005l8.775 9.36c-.45.87-1.23 1.755-2.34 2.655-1.11.9-2.43 1.725-3.96 2.475-1.53.75-3.21 1.365-5.04 1.845-1.83.51-3.705.795-5.625.855-1.89.09-3.765-.105-5.625-.585-1.83-.48-3.525-1.32-5.085-2.52-2.25-1.74-3.915-3.66-4.995-5.76-1.08-2.1-1.725-4.26-1.935-6.48-.21-2.22-.03-4.44.54-6.66a28.8 28.8 0 0 1 2.295-6.255 27.443 27.443 0 0 1 3.555-5.265c1.38-1.56 2.775-2.805 4.185-3.735l.9-.495c.6-.33 1.425-.645 2.475-.945 1.05-.33 2.28-.555 3.69-.675 1.44-.15 2.985-.015 4.635.405 1.68.39 3.42 1.14 5.22 2.25 1.83 1.11 3.645 2.745 5.445 4.905Zm2.927-4.5 24.84-1.845-1.395 11.385-11.295.495-.045 2.16 8.19-.585-.945 7.875-7.515.585-.09 2.475 12.87-1.215-.225 12.42-24.075 1.305-.315-35.055Zm67.302 31.14c-1.08 1.08-2.4 2.025-3.96 2.835-1.53.81-3.18 1.425-4.95 1.845-1.77.42-3.6.615-5.49.585-1.86-.03-3.66-.36-5.4-.99-1.71-.6-3.285-1.53-4.725-2.79-1.44-1.26-2.61-2.895-3.51-4.905-1.02-2.25-1.62-4.485-1.8-6.705-.21-2.22-.075-4.35.405-6.39.48-2.07 1.26-4.02 2.34-5.85a23.147 23.147 0 0 1 3.915-4.95c1.53-1.5 3.24-2.79 5.13-3.87a25.918 25.918 0 0 1 6.12-2.475c2.04-.51 3.945-.66 5.715-.45 1.8.18 3.42.6 4.86 1.26 1.44.66 2.655 1.47 3.645 2.43 1.02.93 1.785 1.875 2.295 2.835.93 1.8 1.62 3.84 2.07 6.12.48 2.25.585 4.59.315 7.02-.24 2.43-.915 4.89-2.025 7.38-1.11 2.46-2.76 4.815-4.95 7.065Zm-5.985-19.17c-.45-.96-1.095-1.65-1.935-2.07-.81-.42-1.695-.6-2.655-.54-.96.06-1.935.345-2.925.855-.99.48-1.89 1.17-2.7 2.07-.81.87-1.485 1.935-2.025 3.195-.51 1.26-.765 2.655-.765 4.185-.03 1.44.165 2.61.585 3.51.45.9 1.005 1.575 1.665 2.025.69.42 1.47.66 2.34.72a6.86 6.86 0 0 0 2.565-.405c.87-.3 1.68-.735 2.43-1.305.75-.6 1.38-1.29 1.89-2.07.75-1.17 1.29-2.25 1.62-3.24.36-1.02.57-1.95.63-2.79.09-.84.06-1.605-.09-2.295a7.837 7.837 0 0 0-.63-1.845Zm42.736 16.425-6.975 7.875-10.935-8.055-.135 7.695-10.89-1.125-.72-35.145c5.7-.66 9.87-1.11 12.51-1.35l3.96-.405c2.82-.3 5.16-.09 7.02.63 1.89.72 3.315 1.77 4.275 3.15.99 1.35 1.545 2.94 1.665 4.77.15 1.8-.105 3.66-.765 5.58-.66 1.89-1.71 3.735-3.15 5.535-1.41 1.8-3.165 3.36-5.265 4.68l9.405 6.165ZM208.782 16.89l-.45 7.2c1.08-.24 2.01-.585 2.79-1.035.81-.45 1.485-.93 2.025-1.44.54-.51.945-.99 1.215-1.44.3-.48.48-.855.54-1.125 0-.03.015-.195.045-.495s-.015-.66-.135-1.08c-.09-.42-.345-.765-.765-1.035-.39-.3-1.005-.435-1.845-.405-.84 0-1.98.285-3.42.855Zm35.366-14.175 22.725 34.56-14.13 5.355-3.78-6.3-9.45.315-1.845 6.75-13.545-4.41 20.025-36.27Zm-2.295 26.775 5.355-.945-2.25-6.12-3.105 7.065ZM266.9 5.325l17.19 14.265.405-14.895 13.41.9-2.07 34.335-17.235-8.595.63 10.62-12.915.81.585-37.44Zm58.398 14.355c-.42-1.02-1.095-1.755-2.025-2.205-.9-.48-1.92-.72-3.06-.72-1.11 0-2.265.24-3.465.72-1.2.48-2.295 1.155-3.285 2.025-.99.87-1.815 1.935-2.475 3.195-.63 1.26-.945 2.685-.945 4.275-.03 1.47.195 2.655.675 3.555.51.87 1.14 1.5 1.89 1.89.78.39 1.635.57 2.565.54a8.19 8.19 0 0 0 2.745-.675c.9-.42 1.71-.96 2.43-1.62.75-.69 1.305-1.47 1.665-2.34l-6.39 1.215.72-7.245 19.62-2.475c.27 1.89.18 3.765-.27 5.625-.42 1.83-1.02 3.51-1.8 5.04a33.417 33.417 0 0 1-2.385 4.14c-.84 1.2-1.545 2.115-2.115 2.745-.54.63-.84.975-.9 1.035-1.08 1.08-2.4 2.025-3.96 2.835-1.53.81-3.18 1.425-4.95 1.845-1.77.42-3.6.6-5.49.54-1.89-.03-3.69-.36-5.4-.99-1.71-.6-3.3-1.53-4.77-2.79-1.44-1.26-2.61-2.895-3.51-4.905-1.02-2.25-1.605-4.485-1.755-6.705-.15-2.25.03-4.41.54-6.48.51-2.1 1.32-4.08 2.43-5.94a24.21 24.21 0 0 1 4.05-4.995c1.59-1.5 3.36-2.775 5.31-3.825 1.95-1.05 4.005-1.8 6.165-2.25.06 0 .375-.03.945-.09.6-.09 1.455-.105 2.565-.045 1.11.06 2.355.285 3.735.675 1.38.36 2.88.99 4.5 1.89 1.62.87 3.225 2.085 4.815 3.645l-8.415 8.865Zm11.854-12.51 24.84-1.845-1.395 11.385-11.295.495-.045 2.16 8.19-.585-.945 7.875-7.515.585-.09 2.475 12.87-1.215-.225 12.42-24.075 1.305-.315-35.055Zm43.956 36.225c-.93-.33-1.77-.765-2.52-1.305a8.185 8.185 0 0 1-1.8-1.71 6.001 6.001 0 0 1-.945-1.98c-.15-.69-.105-1.35.135-1.98.21-.63.585-1.17 1.125-1.62.54-.45 1.185-.78 1.935-.99.78-.21 1.62-.285 2.52-.225.9.03 1.815.195 2.745.495.93.33 1.755.765 2.475 1.305.75.51 1.35 1.08 1.8 1.71.48.63.795 1.29.945 1.98.15.69.12 1.35-.09 1.98a3.27 3.27 0 0 1-1.125 1.575c-.54.45-1.2.78-1.98.99-.75.24-1.575.345-2.475.315a9.09 9.09 0 0 1-2.745-.54Zm8.64-10.53c-.78-.54-1.68-.975-2.7-1.305-.99-.36-2.055-.585-3.195-.675a12.508 12.508 0 0 0-3.195.135c-.99.15-1.905.42-2.745.81L380.298.69l13.32-.54-3.87 32.715Z"/></g></mask></defs><path d="m4.034 12.145-.289-3.99L0 8.426l.034 3.755 4-.036Zm24.885-1.8 3.971.473.574-4.813-4.834.35.289 3.99Zm-1.395 11.7.158 3.997 3.409-.136.404-3.388-3.971-.473Zm-11.34.45-.159-3.997-3.336.132-.466 3.306 3.961.559Zm-.495 3.51-3.961-.559-.685 4.854 4.893-.303-.247-3.992Zm9.45-.585 3.991-.266-.265-3.973-3.974.246.248 3.993Zm.63 9.45.246 3.992 4.012-.247-.267-4.011-3.991.266Zm-9.495.585-.246-3.993-3.61.223-.141 3.614 3.997.156Zm-.45 11.52.094 3.999 3.756-.089.147-3.754-3.997-.156Zm-11.475.27-4 .036.036 4.058 4.058-.095-.094-3.999Zm-.027-31.111 24.885-1.8-.577-7.979-24.885 1.8.577 7.979Zm20.625-6.263-1.395 11.7 7.943.947 1.395-11.7-7.943-.947Zm2.418 8.177-11.34.45.317 7.994 11.34-.45-.317-7.994Zm-15.142 3.888-.495 3.51 7.921 1.117.495-3.51-7.921-1.117Zm3.713 8.061 9.45-.585-.495-7.985-9.45.585.495 7.985Zm5.211-4.311.63 9.45 7.983-.532-.63-9.45-7.983.532Zm4.376 5.191-9.495.585.492 7.985 9.495-.585-.492-7.985Zm-13.246 4.422-.45 11.52 7.994.312.45-11.52-7.994-.312Zm3.452 7.677-11.475.27.189 7.998 11.475-.27-.189-7.998Zm-7.381 4.233-.315-35.1-7.999.072.315 35.1 7.999-.072Zm47.341-3.879 2.828 2.828.02-.019.018-.019-2.866-2.79Zm-3.96 2.835-1.843-3.55-.014.007-.015.008 1.872 3.535Zm-4.95 1.845.923 3.892-.923-3.892Zm-5.49.585-.065 3.999h.001l.064-3.999Zm-5.4-.99 1.362-3.761-.019-.007-.019-.007-1.324 3.775Zm-4.725-2.79-2.634 3.01 2.634-3.01Zm-3.51-4.905 3.651-1.635-.004-.008-.004-.009-3.643 1.652Zm-1.8-6.705 3.987-.324-.002-.026-.003-.027-3.982.377Zm.405-6.39 3.894.916.003-.013-3.897-.903Zm2.34-5.85-3.445-2.033 3.445 2.033Zm3.915-4.95 2.771 2.884.015-.014.014-.014-2.8-2.856Zm5.13-3.87-1.961-3.487-.012.007-.012.007 1.985 3.473Zm6.12-2.475-.97-3.881-.025.006-.026.007 1.021 3.868Zm5.715-.45-.471 3.972.036.004.037.004.398-3.98Zm8.505 3.69-2.785 2.871.045.043.045.042 2.695-2.956Zm2.295 2.835 3.554-1.836-.011-.021-.011-.02-3.532 1.877Zm2.07 6.12-3.924.774.006.03.006.03 3.912-.834Zm.315 7.02-3.976-.442-.002.024-.003.025 3.981.393Zm-2.025 7.38 3.646 1.645.004-.008.003-.009-3.653-1.628ZM49.704 24.16l-3.622 1.697.022.046.022.046 3.578-1.789Zm-1.935-2.07-1.841 3.551.026.013.026.013 1.789-3.577Zm-2.655-.54-.25-3.992.25 3.992Zm-2.925.855 1.745 3.599.044-.021.043-.022-1.832-3.556Zm-2.7 2.07 2.928 2.725.023-.024.022-.025-2.973-2.676Zm-2.025 3.195-3.677-1.576-.016.037-.015.038 3.708 1.501Zm-.765 4.185 3.999.083.001-.042v-.041h-4Zm.585 3.51-3.625 1.691.023.049.024.049 3.578-1.789Zm1.665 2.025-2.253 3.305.085.058.088.054 2.08-3.417Zm2.34.72-.275 3.99.068.005.069.002.138-3.997Zm2.565-.405-1.304-3.782-.021.007-.02.008 1.345 3.767Zm2.43-1.305 2.42 3.184.04-.03.039-.031-2.499-3.123Zm1.89-2.07 3.348 2.189.01-.015.009-.016-3.367-2.158Zm1.62-3.24-3.772-1.332-.012.034-.011.033 3.795 1.265Zm.63-2.79-3.977-.426-.008.07-.005.071 3.99.285Zm-.09-2.295-3.909.849 3.909-.849Zm2.527 14.496c-.751.751-1.725 1.465-2.975 2.114l3.686 7.1c1.87-.971 3.536-2.147 4.945-3.557l-5.656-5.657Zm-3.004 2.129a16.813 16.813 0 0 1-4.002 1.488l1.847 7.784a24.838 24.838 0 0 0 5.899-2.202l-3.744-7.07Zm-4.002 1.488c-1.434.34-2.932.502-4.503.477l-.127 7.999a26.19 26.19 0 0 0 6.477-.692l-1.847-7.784Zm-4.502.477a12.548 12.548 0 0 1-4.102-.751l-2.724 7.522a20.549 20.549 0 0 0 6.697 1.228l.129-7.999Zm-4.14-.765c-1.202-.421-2.337-1.082-3.415-2.026l-5.268 6.021c1.802 1.577 3.817 2.776 6.035 3.554l2.648-7.549Zm-3.415-2.026c-.945-.826-1.794-1.966-2.493-3.529l-7.302 3.269c1.101 2.458 2.592 4.588 4.527 6.281l5.268-6.021Zm-2.501-3.546c-.85-1.876-1.317-3.663-1.456-5.377l-7.974.647c.221 2.727.954 5.409 2.144 8.033l7.286-3.303Zm-1.461-5.43c-.171-1.815-.058-3.507.317-5.097l-7.788-1.832c-.585 2.489-.742 5.057-.493 7.682l7.964-.753Zm.32-5.11a16.572 16.572 0 0 1 1.888-4.72l-6.89-4.066a24.63 24.63 0 0 0-2.792 6.979l7.794 1.807Zm1.888-4.72a19.136 19.136 0 0 1 3.241-4.099l-5.542-5.769a27.163 27.163 0 0 0-4.589 5.802l6.89 4.066Zm3.27-4.127a21.023 21.023 0 0 1 4.315-3.253l-3.97-6.946a29.042 29.042 0 0 0-5.945 4.486l5.6 5.713Zm4.291-3.24a21.937 21.937 0 0 1 5.18-2.094l-2.042-7.735a29.983 29.983 0 0 0-7.06 2.856l3.922 6.973Zm5.129-2.081c1.652-.413 3.064-.502 4.274-.358l.942-7.944c-2.33-.277-4.728-.066-7.156.541l1.94 7.761Zm4.347-.35c1.422.142 2.605.464 3.591.916l3.334-7.273c-1.894-.867-3.951-1.386-6.129-1.603l-.796 7.96Zm3.591.916c1.087.498 1.908 1.065 2.527 1.665l5.57-5.743c-1.361-1.32-2.97-2.373-4.763-3.195l-3.334 7.273Zm2.617 1.75c.768.7 1.212 1.293 1.458 1.755l7.064-3.753c-.774-1.458-1.86-2.755-3.132-3.914l-5.39 5.912Zm1.436 1.715c.734 1.42 1.312 3.095 1.7 5.058l7.848-1.549c-.512-2.596-1.314-5.002-2.44-7.181l-7.108 3.672Zm1.712 5.118c.385 1.805.477 3.713.251 5.744l7.952.883c.314-2.829.196-5.601-.379-8.296l-7.824 1.669Zm.246 5.793c-.193 1.956-.742 4.001-1.697 6.144l7.306 3.257c1.265-2.836 2.066-5.712 2.353-8.615l-7.962-.786Zm-1.69 6.128c-.89 1.973-2.253 3.95-4.17 5.92l5.732 5.58c2.463-2.53 4.4-5.263 5.73-8.21l-7.292-3.29Zm-3.667-12.158c-.78-1.664-2.02-3.076-3.768-3.95l-3.578 7.155c0 .001-.005-.002-.012-.008l-.007-.005a.84.84 0 0 1 .121.203l7.244-3.395Zm-3.716-3.923c-1.489-.773-3.102-1.084-4.746-.981l.499 7.984c.277-.017.434.031.565.099l3.682-7.102Zm-4.746-.981c-1.592.099-3.102.567-4.507 1.291l3.664 7.112c.575-.297 1.015-.399 1.342-.419l-.499-7.984Zm-4.42 1.247c-1.5.728-2.807 1.748-3.928 2.994l5.946 5.352c.499-.555.992-.914 1.472-1.147l-3.49-7.199Zm-3.883 2.944c-1.168 1.255-2.079 2.725-2.774 4.345l7.354 3.151c.385-.9.824-1.559 1.276-2.045l-5.856-5.451Zm-2.805 4.42c-.726 1.793-1.057 3.706-1.057 5.686h8c0-1.08.179-1.958.473-2.684l-7.416-3.002ZM32.7 31.771c-.038 1.797.19 3.638.959 5.285l7.25-3.383c-.071-.152-.233-.652-.211-1.735l-7.998-.167Zm1.006 5.383c.677 1.354 1.638 2.619 2.99 3.541l4.506-6.61c.032.021-.117-.063-.34-.509l-7.156 3.578Zm3.163 3.653c1.28.779 2.688 1.193 4.145 1.293l.55-7.981c-.283-.019-.435-.085-.535-.146l-4.16 6.834Zm4.282 1.3c1.387.048 2.745-.17 4.048-.635l-2.69-7.534a2.876 2.876 0 0 1-1.082.174l-.276 7.995Zm4.007-.621a12.636 12.636 0 0 0 3.546-1.902l-4.84-6.369c-.42.319-.855.55-1.314.708l2.608 7.563Zm3.625-1.963a12.835 12.835 0 0 0 2.739-3.004l-6.696-4.378a4.814 4.814 0 0 1-1.041 1.135l4.998 6.247Zm2.758-3.035c.874-1.363 1.585-2.745 2.048-4.133l-7.59-2.53c-.197.591-.566 1.369-1.193 2.346l6.735 4.317Zm2.025-4.067c.447-1.267.756-2.555.848-3.836l-7.98-.57c-.028.398-.139.97-.412 1.743l7.544 2.663Zm.835-3.695c.127-1.185.099-2.389-.158-3.571l-7.818 1.699c.043.199.075.525.022 1.02l7.954.852Zm-.158-3.571a11.844 11.844 0 0 0-.961-2.784l-7.156 3.578c.099.196.208.488.299.905l7.818-1.699Zm38.196 15.43 2.995 2.652 3.066-3.462-3.868-2.536-2.193 3.346Zm-6.975 7.875-2.372 3.22 2.943 2.168 2.424-2.736-2.995-2.652Zm-10.935-8.055 2.373-3.221-6.236-4.593-.136 7.744 3.999.07Zm-.135 7.695-.411 3.979 4.334.447.077-4.356-4-.07Zm-10.89-1.125-3.999.082.072 3.533 3.516.364.411-3.979Zm-.72-35.145-.46-3.974-3.613.419.074 3.637 3.999-.082Zm12.51-1.35.362 3.983.023-.002.022-.002-.407-3.979Zm3.96-.405.407 3.979.008-.001.008-.001-.423-3.977Zm7.02.63-1.444 3.73.01.004.01.004 1.424-3.738Zm4.275 3.15-3.283 2.284.028.041.03.04 3.225-2.365Zm1.665 4.77-3.991.261.002.036.003.035 3.986-.332Zm-.765 5.58 3.777 1.318.003-.009.003-.009-3.783-1.3Zm-3.15 5.535-3.123-2.499-.013.016-.013.016 3.149 2.467Zm-5.265 4.68-2.128-3.387-5.276 3.316 5.211 3.416 2.193-3.345Zm-9.18-12.51-1.472-3.719-2.362.934-.158 2.535 3.992.25Zm-.45 7.2-3.992-.25-.332 5.308 5.192-1.154-.868-3.904Zm2.79-1.035-1.942-3.497-.029.016-.028.016 1.999 3.465Zm2.025-1.44 2.747 2.908-2.747-2.908Zm1.215-1.44-3.392-2.12-.019.031-.019.031 3.43 2.058Zm.54-1.125 3.905.867.095-.428v-.439h-4Zm.045-.495-3.98-.398 3.98.398Zm-.135-1.08-3.911.838.028.131.037.13 3.846-1.099Zm-.765-1.035-2.439 3.17.134.103.142.091 2.163-3.364Zm-1.845-.405v4h.072l.071-.003-.143-3.997Zm12.171 16.878-6.975 7.875 5.989 5.304 6.975-7.875-5.989-5.304Zm-1.608 7.306-10.935-8.055-4.745 6.441 10.935 8.055 4.745-6.441ZM70.53 40.335l-.135 7.695 7.999.14.135-7.695-7.999-.14Zm4.275 3.786-10.89-1.125-.822 7.958 10.89 1.125.822-7.958Zm-7.302 2.772-.72-35.145-7.998.164.72 35.145 7.998-.164Zm-4.259-31.09c5.696-.659 9.825-1.104 12.412-1.34l-.724-7.967c-2.692.245-6.904.7-12.608 1.36l.92 7.947Zm12.457-1.344c.005-.001.01-.001 0 0Zc.021-.002.026-.003 0 0Zc.036-.004.041-.004 0 0Zc.052-.005.057-.006 0 0Zc.067-.007.072-.007 0 0Zc.082-.008.087-.009 0 0Zl.108-.011.015-.002.015-.001.015-.002.016-.001.015-.002.015-.001.015-.002.015-.001.015-.002.015-.001.015-.002.015-.002.015-.001.014-.002.015-.001.015-.002.015-.001.014-.002.015-.001.015-.002.014-.001.015-.002.015-.001.014-.002.015-.001.014-.002.015-.001.014-.001.014-.002.015-.001.014-.002.014-.001.015-.002.014-.001.014-.002.014-.001.015-.002.014-.001.014-.002.014-.001.014-.001.014-.002.014-.001.014-.002.014-.001.014-.002.013-.001.014-.001.014-.002.014-.001.014-.002.013-.001.014-.001.014-.002.013-.001.014-.002.013-.001.014-.001.013-.002.014-.001.013-.001.014-.002.013-.001.013-.002.014-.001.013-.001.013-.002.013-.001.014-.001.013-.002.013-.001.013-.001.013-.002.013-.001.013-.001.013-.002.013-.001.013-.001.013-.002.013-.001.012-.001.013-.002.013-.001.013-.001.012-.001.013-.002.013-.001.012-.001.013-.002.013-.001.012-.001.013-.001.012-.002.012-.001.013-.001.012-.002.013-.001.012-.001.012-.001.012-.002.013-.001.012-.001.012-.001.012-.002.012-.001.012-.001.012-.001.012-.002.012-.001.012-.001.012-.001.012-.001.012-.002.012-.001.012-.001.011-.001.012-.001.012-.002.011-.001.012-.001.012-.001.011-.001.012-.002.011-.001.012-.001.011-.001.012-.001.011-.001.012-.002.011-.001.011-.001.011-.001.012-.001.011-.001.011-.002.011-.001.011-.001.012-.001.011-.001.011-.001.011-.001.011-.001.011-.002.011-.001.01-.001.011-.001.011-.001.011-.001.011-.001.01-.001.011-.001.011-.001.01-.002.011-.001.011-.001.01-.001.011-.001.01-.001.011-.001.01-.001.011-.001.01-.001.01-.001.011-.001.01-.001.01-.001.01-.002.011-.001.01-.001.01-.001.01-.001.01-.001.01-.001.01-.001.01-.001.01-.001.01-.001.01-.001.01-.001.01-.001.009-.001.01-.001.01-.001.01-.001.009-.001.01-.001.01-.001.009-.001.01-.001.009-.001.01-.001.009-.001.01-.001.009-.001.009-.001h.01l.009-.001.009-.001.01-.001.009-.001.009-.001.009-.001.009-.001.01-.001.009-.001.009-.001.009-.001.009-.001.009-.001.009-.001h.008l.009-.001.009-.001.009-.001.009-.001.008-.001.009-.001.009-.001.009-.001.008-.001h.009l.008-.001.009-.001.008-.001.009-.001.008-.001.009-.001h.008l.008-.001.009-.001.008-.001.008-.001.009-.001.008-.001h.008l.008-.001.008-.001.008-.001.008-.001.008-.001h.008l.008-.001.008-.001.008-.001.008-.001h.008l.008-.001.007-.001.008-.001.008-.001h.008l.007-.001.008-.001.007-.001h.008l.008-.001.007-.001.008-.001.007-.001h.007l.008-.001.007-.001.008-.001h.007l.007-.001.007-.001h.008l.007-.001.007-.001.007-.001h.007l.007-.001.007-.001.007-.001h.007l.007-.001.007-.001h.007l.007-.001.006-.001h.007l.007-.001.007-.001.006-.001h.007l.007-.001.006-.001h.007l.006-.001.007-.001h.006l.007-.001.006-.001h.007l.006-.001.006-.001h.007l.006-.001h.006l.006-.001.007-.001h.006l.006-.001.006-.001h.006l.006-.001h.006l.006-.001.006-.001h.006l.006-.001h.005l.006-.001.006-.001h.006l.006-.001h.005l.006-.001.006-.001h.005l.006-.001h.005l.006-.001h.005l.006-.001.005-.001h.006l.005-.001h.005l.006-.001h.005l.005-.001h.005l.005-.001h.006l.005-.001h.005l.005-.001h.005l.005-.001h.005l.005-.001h.005l.005-.001h.004l.005-.001h.005l.005-.001h.005l.004-.001h.005l.005-.001h.004l.005-.001h.004l.005-.001h.004l.005-.001h.004l.005-.001h.008l.005-.001h.004l.004-.001h.004l.005-.001h.008l.004-.001h.004l.004-.001h.004l.004-.001h.008l.004-.001h.007l.004-.001h.004l.004-.001h.007l.004-.001h.003l.004-.001h.007l.003-.001h.007l.004-.001h.006l.004-.001h.006l.003-.001h.007l.003-.001h.006l.003-.001H79.519l.003-.001h.006l.003-.001h.008l.003-.001h.005l.002-.001h.008l.003-.001h.007l.002-.001h.007l.002-.001H79.587l.002-.001h.008l.002-.001h.008l.002-.001h.006l.002-.001H79.626l.002-.001h.008l.001-.001H79.646l.001-.001H79.656v-.001h.005l-.407-3.979-.407-3.979H78.838l-.001.001h-.008l-.001.001H78.819l-.001.001H78.809l-.001.001H78.8l-.002.001H78.789l-.002.001h-.008l-.002.001h-.006l-.002.001H78.76l-.002.001h-.007l-.003.001h-.007l-.003.001h-.008l-.002.001h-.006l-.003.001h-.008l-.003.001h-.006l-.003.001h-.006l-.003.001h-.006l-.003.001h-.007l-.003.001h-.007l-.003.001h-.007l-.003.001h-.007l-.004.001h-.007l-.003.001h-.008l-.003.001h-.004l-.004.001h-.007l-.004.001h-.004l-.004.001h-.008l-.004.001h-.004l-.004.001h-.004l-.004.001H78.555l-.004.001h-.004l-.004.001h-.005l-.004.001H78.525l-.004.001h-.005l-.004.001h-.005l-.004.001h-.005l-.004.001h-.005l-.005.001h-.004l-.005.001h-.005a.01.01 0 0 0-.005.001h-.004l-.005.001h-.005l-.005.001h-.005l-.005.001h-.005l-.005.001h-.005l-.005.001h-.005l-.005.001H78.4l-.005.001h-.005l-.005.001h-.006l-.005.001h-.005l-.006.001-.005.001h-.006l-.005.001h-.006l-.005.001h-.006a.009.009 0 0 1-.005.001l-.006.001h-.006l-.005.001h-.006l-.006.001h-.006l-.005.001-.006.001h-.006l-.006.001h-.006l-.006.001-.006.001h-.006l-.006.001-.006.001h-.006l-.006.001h-.007l-.006.001-.006.001h-.006l-.007.001-.006.001h-.006l-.007.001-.006.001h-.007l-.006.001-.007.001h-.006l-.007.001-.006.001h-.007l-.007.001-.006.001h-.007l-.007.001-.007.001h-.006l-.007.001-.007.001-.007.001h-.007l-.007.001-.007.001h-.007l-.007.001-.007.001-.007.001h-.007l-.007.001-.008.001h-.007l-.007.001-.007.001-.008.001h-.007l-.008.001-.007.001-.007.001-.008.001h-.007l-.008.001-.007.001-.008.001h-.008l-.007.001-.008.001-.008.001-.008.001h-.007l-.008.001-.008.001-.008.001-.008.001h-.008l-.008.001-.008.001-.008.001-.008.001h-.008l-.008.001-.008.001-.008.001-.008.001-.009.001h-.008l-.008.001-.008.001-.009.001-.008.001-.009.001-.008.001h-.009l-.008.001-.009.001-.008.001-.009.001-.008.001-.009.001-.009.001-.008.001h-.009l-.009.001-.009.001-.009.001-.008.001-.009.001-.009.001-.009.001-.009.001-.009.001-.009.001h-.009l-.009.001-.01.001-.009.001-.009.001-.009.001-.009.001-.01.001-.009.001-.009.001-.01.001-.009.001-.01.001-.009.001-.01.001-.009.001-.01.001-.009.001-.01.001-.01.001-.009.001-.01.001-.01.001-.01.001-.009.001-.01.001-.01.001-.01.001-.01.001-.01.001-.01.001-.01.001-.01.001-.01.001-.01.001-.01.001-.01.001-.011.001-.01.001-.01.001-.01.001-.011.001-.01.001-.01.001-.011.001-.01.001-.011.002-.01.001-.011.001-.01.001-.011.001-.01.001-.011.001-.011.001-.011.001-.01.001-.011.001-.011.002-.011.001-.011.001-.01.001-.011.001-.011.001-.011.001-.011.001-.011.001-.011.002-.011.001-.012.001-.011.001-.011.001-.011.001-.011.001-.012.002-.011.001-.011.001-.012.001-.011.001-.012.001-.011.002-.012.001-.011.001-.012.001-.011.001-.012.002-.012.001-.011.001-.012.001-.012.001-.011.001-.012.002-.012.001-.012.001-.012.001-.012.002-.012.001-.012.001-.012.001-.012.001-.012.002-.012.001-.012.001-.012.001-.012.002-.013.001-.012.001-.012.001-.012.002-.013.001-.012.001-.013.001-.012.002-.012.001-.013.001-.012.002-.013.001-.013.001-.012.001-.013.002-.012.001-.013.001-.013.002-.013.001-.012.001-.013.002-.013.001-.013.001-.013.002-.013.001-.013.001-.013.001-.013.002-.013.001-.013.002-.013.001-.013.001-.014.002-.013.001-.013.001-.013.002-.014.001-.013.001-.013.002-.014.001-.013.001-.014.002-.013.001-.014.002-.013.001-.014.001-.013.002-.014.001-.014.002-.013.001-.014.001-.014.002-.014.001-.013.002-.014.001-.014.001-.014.002-.014.001-.014.002-.014.001-.014.002-.014.001-.014.001-.014.002-.015.001-.014.002-.014.001-.014.002-.014.001-.015.002-.014.001-.014.002-.015.001-.014.001-.015.002-.014.001-.015.002-.014.001-.015.002-.014.001-.015.002-.015.001-.014.002-.015.001-.015.002-.015.001-.015.002-.014.001a.077.077 0 0 1-.015.002l-.015.002-.015.001-.015.002-.015.001-.015.002-.015.001-.015.002-.015.001-.016.002-.015.001-.015.002a.077.077 0 0 0-.015.002l-.015.001-.016.002-.015.001-.015.002-.016.001-.015.002a.088.088 0 0 0-.016.002l.814 7.958Zm3.976-.407c2.437-.259 4.084-.031 5.153.383l2.888-7.461c-2.651-1.026-5.684-1.218-8.887-.877l.846 7.955Zm5.173.391c1.294.492 2.002 1.101 2.416 1.696l6.567-4.569c-1.506-2.164-3.648-3.656-6.135-4.603l-2.848 7.476Zm2.474 1.777c.497.678.824 1.521.899 2.666l7.983-.523c-.165-2.515-.948-4.852-2.431-6.874l-6.451 4.731Zm.904 2.737c.099 1.183-.059 2.487-.562 3.947l7.566 2.601c.818-2.379 1.17-4.795.968-7.212l-7.972.664Zm-.555 3.929c-.49 1.403-1.298 2.856-2.497 4.355l6.247 4.998c1.68-2.101 2.973-4.339 3.803-6.716l-7.553-2.637Zm-2.523 4.387c-1.102 1.407-2.502 2.665-4.244 3.76l4.257 6.773c2.457-1.544 4.567-3.407 6.285-5.6l-6.298-4.933Zm-4.309 10.492 9.405 6.165 4.386-6.691-9.405-6.165-4.386 6.691ZM69.862 21.66l-.45 7.2 7.984.499.45-7.2-7.984-.499Zm4.41 11.354c1.39-.308 2.719-.781 3.921-1.475l-3.998-6.929c-.357.206-.889.424-1.659.595l1.736 7.809Zm3.865-1.443c1.033-.573 1.995-1.241 2.829-2.028l-5.493-5.816c-.247.233-.634.525-1.221.851l3.885 6.993Zm2.829-2.028c.705-.666 1.38-1.427 1.898-2.29l-6.86-4.116c-.022.037-.156.236-.531.59l5.493 5.816Zm1.86-2.228c.343-.549.837-1.406 1.053-2.378l-7.81-1.735a2.537 2.537 0 0 1 .089-.305c.02-.054.033-.08.03-.074a4.08 4.08 0 0 1-.146.252l6.784 4.24Zm1.148-3.245c0 .039 0 .071 0 0Zl-.003.152-.003.065-.003.042.004-.043.03-.313-7.96-.796-.037.384-.013.154-.007.102c-.001.02-.008.124-.008.253h8Zm.025-.097c.098-.975-.067-1.871-.269-2.577l-7.692 2.198c.015.051.008.042.001-.018a1.768 1.768 0 0 1 0-.399l7.96.796Zm-.204-2.316c-.349-1.631-1.354-2.817-2.513-3.562l-4.326 6.729a2.124 2.124 0 0 1-.547-.525 2.517 2.517 0 0 1-.436-.966l7.822-1.676Zm-2.237-3.368c-1.494-1.149-3.257-1.273-4.427-1.232l.286 7.995c.189-.007.2.012.091-.012a2.147 2.147 0 0 1-.828-.41l4.878-6.341Zm-4.284-1.234c-1.605 0-3.311.51-4.892 1.136l2.944 7.438a11.887 11.887 0 0 1 1.433-.48c.369-.092.523-.094.515-.094v-8Zm46.482-.365 3.102 2.525 2.08-2.555-2.109-2.531-3.073 2.561Zm-7.875 9.675-2.904 2.751 3.132 3.305 2.874-3.531-3.102-2.525Zm-4.275-3.285-1.485 3.714.015.006.016.006 1.454-3.726Zm-3.15-.315 1.064 3.856.043-.012.043-.013-1.15-3.831Zm-2.205 1.575 3.171 2.439.022-.029.021-.029-3.214-2.381Zm-1.44 2.43 3.655 1.624.011-.024.011-.025-3.677-1.575Zm-.765 2.205-3.901-.887 3.901.887Zm-.225.99-3.901-.887-.099.438v.449h4Zm.18 1.17-3.946.657.013.08.017.079 3.916-.816Zm.945 2.43-3.53 1.882.038.071.041.07 3.451-2.023Zm2.115 1.935-1.691 3.624.022.011.023.01 1.646-3.645Zm3.735-.18-1.286-3.788-.011.004-.011.004 1.308 3.78Zm5.85-4.005 2.918-2.736-2.713-2.894-2.916 2.689 2.711 2.941Zm8.775 9.36 3.553 1.837 1.299-2.511-1.934-2.062-2.918 2.736Zm-6.3 5.13-1.76-3.592 1.76 3.592Zm-5.04 1.845-1.015-3.869-.029.007-.03.009 1.074 3.853Zm-5.625.855-.125-3.998-.032.001-.033.001.19 3.996Zm-5.625-.585-1.015 3.869.008.002.007.002 1-3.873Zm-5.085-2.52-2.447 3.164.008.006 2.439-3.17Zm-4.995-5.76-3.557 1.829 3.557-1.829Zm-1.935-6.48 3.982-.377-3.982.377Zm.54-6.66 3.874.995.006-.025.006-.025-3.886-.945Zm2.295-6.255-3.545-1.854-.011.021-.011.022 3.567 1.811Zm3.555-5.265-2.996-2.651-.015.017-.014.016 3.025 2.618Zm4.185-3.735L99.463 7.74l-.141.077-.134.089 2.203 3.339Zm.9-.495-1.928-3.505 1.928 3.505Zm2.475-.945 1.099 3.846.05-.015.05-.015-1.199-3.816Zm3.69-.675.339 3.985.038-.003.038-.004-.415-3.978Zm4.635.405-.987 3.876.041.011.042.009.904-3.896Zm5.22 2.25-2.099 3.404.012.008.013.008 2.074-3.42Zm2.343 2.38-7.875 9.675 6.204 5.05 7.875-9.675-6.204-5.05Zm-1.869 9.449c-1.756-1.854-3.67-3.459-5.725-4.261l-2.908 7.453c.406.158 1.341.743 2.825 2.31l5.808-5.502Zm-5.693-4.248c-1.728-.691-3.744-1.045-5.785-.433l2.299 7.663c-.11.033-.154.018-.085.025.079.008.273.042.6.173l2.971-7.428Zm-5.7-.457c-1.832.505-3.289 1.61-4.356 3.05l6.429 4.762c.08-.108.122-.135.112-.128a.14.14 0 0 1-.027.016c-.014.007-.025.01-.03.012l-2.128-7.712Zm-4.312 2.992a15.3 15.3 0 0 0-1.946 3.293l7.354 3.151a7.216 7.216 0 0 1 .934-1.566l-6.342-4.878Zm-1.925 3.244c-.435.979-.788 1.966-1.01 2.943l7.802 1.773c.078-.343.235-.826.519-1.467l-7.311-3.249Zm-1.01 2.943c0 .002 0 .003 0 0Zc-.001.005-.001.007 0 0Zc-.002.009-.002.011 0 0Zc-.003.013-.003.014 0 0Zc-.004.017-.004.018 0 0Zc-.005.021-.005.022 0 0Zc-.005.025-.006.026 0 0Zc-.006.028-.007.03 0 0Zc-.007.032-.007.033 0 0Zc-.008.036-.008.037 0 0Zc-.009.04-.009.041 0 0Zc-.01.044-.01.045 0 0Zc-.011.047-.011.049 0 0Zc-.011.051-.012.052 0 0Zc-.012.055-.013.056 0 0Zc-.013.059-.013.06 0 0Zc-.014.062-.014.064 0 0Zc-.015.066-.015.067 0 0Zc-.016.07-.016.071 0 0Zc-.017.074-.017.075 0 0Zc-.017.077-.018.079 0 0Zc-.018.081-.018.082 0 0Zc-.019.085-.019.086 0 0Zc-.02.088-.02.09 0 0Zc-.021.092-.021.093 0 0Zl-.022.098-.001.004-.001.004-.001.003v.004l-.001.004-.001.003-.001.004-.001.003-.001.004v.004l-.001.003-.001.004-.001.003-.001.004v.003l-.001.004-.001.004-.001.003-.001.004v.003l-.001.004-.001.003-.001.004-.001.003v.004l-.001.003-.001.004-.001.003-.001.004v.003l-.001.003-.001.004-.001.003v.004l-.001.003-.001.004-.001.003-.001.003v.004l-.001.003-.001.003-.001.004v.003l-.001.003-.001.004-.001.003v.003l-.001.004-.001.003-.001.003v.004l-.001.003-.001.003-.001.003v.004l-.001.003-.001.003-.001.003v.004l-.001.003-.001.003-.001.003v.004l-.001.003-.001.003v.003l-.001.003-.001.003-.001.004v.003l-.001.003-.001.003v.003l-.001.003-.001.003-.001.003v.004l-.001.003-.001.003v.003l-.001.003-.001.003v.003l-.001.003-.001.003-.001.003v.003l-.001.003-.001.003v.003l-.001.003-.001.003v.003l-.001.003-.001.003v.003l-.001.003-.001.003v.003l-.001.003-.001.002v.003l-.001.003-.001.003v.003l-.001.003-.001.003v.003l-.001.003v.002l-.001.003-.001.003v.003l-.001.003-.001.002v.003l-.001.003-.001.003v.003l-.001.002v.003l-.001.003-.001.003v.002l-.001.003-.001.003v.003l-.001.002v.003l-.001.003-.001.002v.003l-.001.003v.002l-.001.003-.001.003v.002l-.001.003v.003l-.001.002-.001.003v.002l-.001.003v.003l-.001.002-.001.003v.002l-.001.003v.002l-.001.003-.001.002v.003l-.001.002v.003l-.001.003v.002l-.001.002v.003l-.001.002-.001.003v.002l-.001.003v.002l-.001.003v.002l-.001.003v.002l-.001.002-.001.003v.002l-.001.003v.002l-.001.002v.003l-.001.002v.002l-.001.003v.002l-.001.002v.003l-.001.002-.001.002v.003l-.001.002v.002l-.001.002v.003l-.001.002v.002l-.001.002v.003l-.001.002v.002l-.001.002v.002l-.001.003v.002l-.001.002v.002l-.001.002v.003l-.001.002v.002l-.001.002v.002l-.001.002v.004l-.001.002v.003l-.001.002v.002l-.001.002v.002l-.001.002v.002l-.001.002v.002l-.001.002v.002l-.001.002v.004l-.001.002v.002l-.001.002v.002l-.001.002v.002l-.001.002v.004l-.001.002v.001l-.001.002v.002l-.001.002v.004l-.001.002v.002l-.001.001v.002l-.001.002v.004l-.001.002v.001l-.001.002v.004l-.001.001v.002l-.001.002v.003l-.001.002v.002l-.001.002v.003l-.001.002v.001l-.001.002v.003l-.001.002v.003l-.001.002v.002l-.001.001v.004l-.001.001v.003l-.001.002v.003l-.001.002v.003l-.001.001v.003l-.001.002v.001l-.001.002v.003l-.001.001v.003l-.001.001v.005l-.001.001v.003l-.001.001v.003l-.001.002v.002l-.001.002v.002l-.001.002v.004l-.001.001v.002l-.001.002v.003l-.001.002v.002l-.001.001v.004l-.001.001v.004l-.001.001v.002l-.001.001v.004l-.001.001v.003l-.001.001v.004l-.001.001v.003l-.001.001v.003l-.001.001v.004l-.001.001v.004l-.001.001v.003l-.001.001v.004h-.001v.004h-.001v.004l-.001.001v.004h-.001v.004l-.001.001v.004h-.001v.004h-.001v.004l-.001.001v.004h-.001v.004l-.001.001v.004h-.001v.001l3.901.887 3.901.886v-.003h.001v-.005h.001v-.004h.001v-.004l.001-.001v-.003l.001-.001v-.004l.001-.001v-.004h.001v-.004l.001-.001v-.003l.001-.001v-.003l.001-.001v-.004l.001-.001V30.8l.001-.001v-.004l.001-.001v-.003l.001-.001v-.004l.001-.001v-.003l.001-.001v-.003l.001-.001v-.004l.001-.001v-.003l.001-.002v-.002l.001-.001v-.003l.001-.002v-.003l.001-.001v-.004l.001-.001v-.003l.001-.001v-.004l.001-.001v-.003l.001-.001v-.003l.001-.001v-.004l.001-.001v-.003l.001-.002v-.002l.001-.002v-.003l.001-.001v-.003l.001-.001v-.003l.001-.002v-.003l.001-.001v-.003l.001-.002v-.003l.001-.001v-.004l.001-.001v-.002l.001-.001v-.004l.001-.001v-.003l.001-.002v-.003l.001-.002v-.002l.001-.001v-.004l.001-.001v-.002l.001-.002v-.003l.001-.002v-.003l.001-.002v-.002l.001-.002v-.003l.001-.002v-.002l.001-.001v-.002l.001-.002v-.004l.001-.002v-.001l.001-.002v-.004l.001-.002v-.002l.001-.002v-.002l.001-.002v-.003l.001-.002v-.002l.001-.002v-.002l.001-.002v-.002l.001-.002v-.004l.001-.002v-.002l.001-.002v-.002l.001-.002v-.002l.001-.002v-.002l.001-.002v-.002l.001-.002v-.002l.001-.003v-.004l.001-.002v-.002l.001-.002v-.002l.001-.002v-.003l.001-.002v-.002l.001-.002v-.002l.001-.002v-.003l.001-.002v-.002l.001-.002v-.002l.001-.003v-.002l.001-.002v-.002l.001-.003v-.002l.001-.002v-.002l.001-.003.001-.002v-.002l.001-.003v-.002l.001-.002v-.003l.001-.002v-.002l.001-.003v-.002l.001-.002v-.003l.001-.002v-.003l.001-.002.001-.002v-.003l.001-.002v-.003l.001-.002v-.003l.001-.002v-.003l.001-.002.001-.003v-.002l.001-.003v-.002l.001-.003v-.002l.001-.003.001-.002v-.003l.001-.002v-.003l.001-.002v-.003l.001-.002.001-.003v-.003l.001-.002v-.003l.001-.002.001-.003v-.003l.001-.002v-.003l.001-.003.001-.002v-.003l.001-.003v-.002l.001-.003.001-.003v-.002l.001-.003.001-.003v-.003l.001-.002v-.003l.001-.003.001-.003v-.002l.001-.003.001-.003v-.003l.001-.003v-.002l.001-.003.001-.003v-.003l.001-.003.001-.003v-.002l.001-.003.001-.003v-.003l.001-.003.001-.003v-.003l.001-.003.001-.002v-.003l.001-.003.001-.003v-.003l.001-.003.001-.003v-.003l.001-.003.001-.003v-.003l.001-.003.001-.003v-.003l.001-.003.001-.003v-.003l.001-.003.001-.003v-.003l.001-.003.001-.003.001-.003v-.004l.001-.003.001-.003v-.003l.001-.003.001-.003.001-.003v-.003l.001-.003.001-.004v-.003l.001-.003.001-.003.001-.003v-.004l.001-.003.001-.003v-.003l.001-.003.001-.004.001-.003v-.003l.001-.003.001-.004.001-.003v-.003l.001-.003.001-.004.001-.003v-.003l.001-.004.001-.003.001-.003v-.004l.001-.003.001-.003.001-.004V30.1l.001-.003.001-.004.001-.003v-.004l.001-.003.001-.003.001-.004.001-.003v-.004l.001-.003.001-.003.001-.004.001-.003v-.004l.001-.003.001-.004.001-.003v-.004l.001-.003.001-.004.001-.003.001-.004v-.003l.001-.004.001-.004.001-.003.001-.004.001-.003v-.004l.001-.003.001-.004.001-.004.001-.003v-.004l.001-.004.001-.003.001-.004.001-.003.001-.004v-.004l.001-.003.001-.004.001-.004.001-.004.001-.003v-.004l.001-.004.001-.003.001-.004.001-.004.001-.004.001-.003v-.004l.001-.004.001-.004.001-.003.001-.004.001-.004.001-.004v-.004l.001-.004.001-.003.001-.004.001-.004.001-.004.001-.004-7.802-1.773Zm-.324 1.877c0 .238.022.437.024.456a11.387 11.387 0 0 0 .067.489c.034.22.082.517.143.882l7.892-1.315a68.738 68.738 0 0 1-.127-.783l-.023-.151.005.041.009.1c.003.035.01.142.01.281h-8Zm.264 1.986c.251 1.204.736 2.38 1.331 3.496l7.06-3.765c-.365-.684-.51-1.128-.559-1.363l-7.832 1.632Zm1.41 3.637a8.709 8.709 0 0 0 3.875 3.536l3.383-7.249a.723.723 0 0 1-.356-.333l-6.902 4.046Zm3.92 3.557c2.293 1.036 4.731.633 6.69-.045l-2.617-7.56c-.53.183-.846.228-.988.234-.129.007-.018-.022.207.08l-3.292 7.291Zm6.667-.038c2.4-.815 4.851-2.616 7.276-4.852l-5.423-5.881c-2.196 2.024-3.645 2.893-4.425 3.158l2.572 7.575Zm1.646-5.056 8.775 9.36 5.836-5.472-8.775-9.36-5.836 5.472Zm8.14 4.786c-.108.209-.444.687-1.306 1.386l5.038 6.214c1.358-1.101 2.582-2.394 3.374-3.925l-7.106-3.675Zm-1.306 1.386c-.837.678-1.892 1.348-3.201 1.99l3.521 7.183c1.75-.858 3.335-1.838 4.718-2.959l-5.038-6.214Zm-3.201 1.99c-1.267.621-2.694 1.148-4.295 1.568l2.03 7.738c2.059-.54 3.993-1.244 5.786-2.123l-3.521-7.183Zm-4.354 1.584c-1.517.422-3.073.66-4.676.71l.25 7.996a27.643 27.643 0 0 0 6.574-1l-2.148-7.706Zm-4.741.712a14.802 14.802 0 0 1-4.435-.462l-2 7.746c2.243.578 4.519.817 6.815.707l-.38-7.991Zm-4.42-.458c-1.293-.339-2.507-.934-3.661-1.822l-4.878 6.341c1.966 1.512 4.141 2.598 6.509 3.219l2.03-7.738Zm-3.653-1.815c-1.88-1.454-3.122-2.942-3.885-4.426l-7.114 3.659c1.397 2.717 3.485 5.069 6.105 7.095l4.894-6.328Zm-3.885-4.426c-.861-1.674-1.351-3.343-1.51-5.027l-7.965.753c.261 2.757 1.062 5.407 2.361 7.933l7.114-3.659Zm-1.51-5.027a15.3 15.3 0 0 1 .432-5.288l-7.749-1.99a23.32 23.32 0 0 0-.648 8.031l7.965-.753Zm.444-5.338a24.837 24.837 0 0 1 1.975-5.389l-7.133-3.622a32.807 32.807 0 0 0-2.615 7.12l7.773 1.891Zm1.953-5.346a23.43 23.43 0 0 1 3.035-4.502l-6.049-5.235a31.464 31.464 0 0 0-4.075 6.029l7.089 3.708Zm3.007-4.469c1.198-1.355 2.334-2.349 3.392-3.046l-4.406-6.678c-1.762 1.162-3.417 2.659-4.978 4.423l5.992 5.301Zm1.189-6.385 1.927 3.505h.001v-.001h.001l.001-.001h.001v-.001h.002v-.001h.002v-.001h.001l.001-.001h.001l.001-.001h.001l.001-.001h.001v-.001h.002v-.001h.002v-.001h.001l.001-.001h.001l.001-.001h.001l.001-.001h.001v-.001h.002v-.001h.001l.001-.001h.001l.001-.001h.001v-.001h.002v-.001h.002l.001-.001.001-.001h.001l.001-.001h.001l.001-.001h.001l.001-.001h.001l.001-.001.001-.001h.001l.001-.001h.001l.001-.001h.002v-.001h.001l.001-.001h.001l.001-.001h.001l.001-.001h.001l.001-.001.001-.001h.001l.001-.001h.001l.001-.001h.001l.001-.001h.001l.001-.001.001-.001h.001l.001-.001h.001l.001-.001h.001l.001-.001h.001l.001-.001.001-.001h.001l.001-.001h.001l.001-.001.002-.001h.001l.001-.001h.001l.001-.001.001-.001h.001l.001-.001h.001l.002-.001.001-.001h.001l.001-.001.001-.001h.001l.002-.001.001-.001h.001l.001-.001.001-.001h.002l.001-.001.001-.001h.001l.002-.001.001-.001h.001l.001-.001.002-.001h.001l.001-.001.001-.001.002-.001h.001l.001-.001.002-.001h.001l.001-.001.002-.001.001-.001h.001l.002-.001.001-.001.002-.001h.001l.001-.001.002-.001.001-.001.002-.001h.001l.001-.001.002-.001.001-.001h.002l.001-.001.002-.001.001-.001.002-.001h.001l.001-.001.002-.001.001-.001.002-.001.002-.001h.001l.002-.001.001-.001.002-.001.001-.001.002-.001.001-.001h.002l.001-.001.002-.001.002-.001.001-.001.002-.001.001-.001.002-.001h.002l.001-.001.002-.001.002-.001.001-.001.002-.001.002-.001.001-.001.002-.001.002-.001.001-.001.002-.001h.002l.001-.001.002-.001.002-.001.002-.001.001-.001.002-.001.002-.001.002-.001.001-.001.002-.001.002-.001.002-.001.002-.001.001-.001.002-.001.002-.001.002-.001.002-.001.001-.001.002-.001.002-.001.002-.001.002-.001.002-.001.002-.001.001-.001.002-.001.002-.001.002-.001.002-.001.002-.001.002-.001.002-.002.002-.001.002-.001.002-.001.002-.001.002-.001.002-.001.002-.001.002-.001.002-.001.002-.001.002-.002.002-.001.002-.001.002-.001.002-.001.002-.001.002-.001.002-.001.002-.001.002-.002.002-.001.002-.001.002-.001.002-.001.002-.001.003-.002.002-.001.002-.001.002-.001.002-.001.002-.001.002-.002.002-.001.003-.001.002-.001.002-.001.002-.002.002-.001.003-.001.002-.001.002-.001.002-.002.002-.001.003-.001.002-.001.002-.002.002-.001.003-.001.002-.001.002-.002.003-.001.002-.001.002-.001.002-.002.003-.001.002-.001.002-.001.003-.002.002-.001.002-.001.003-.002.002-.001.002-.001.003-.001.002-.002.003-.001.002-.001.002-.002.003-.001.002-.001.003-.002.002-.001.002-.001.003-.002.002-.001.003-.001.002-.002.003-.001.002-.001.003-.002.002-.001.003-.002.002-.001.003-.001.002-.002.003-.001.002-.001.003-.002.002-.001.003-.002.002-.001.003-.002.003-.001.002-.001.003-.002.002-.001.003-.002.003-.001.002-.001.003-.002.002-.001.003-.002.003-.001.002-.002.003-.001.003-.002.002-.001.003-.002.003-.001.002-.002.003-.001.003-.002.002-.001.003-.002.003-.001.003-.002.002-.001.003-.002.003-.001.003-.002.002-.001.003-.002.003-.001.003-.002.003-.001.002-.002.003-.001.003-.002.003-.001.003-.002.002-.001.003-.002.003-.002.003-.001.003-.002.003-.001.003-.002.002-.001.003-.002.003-.002.003-.001.003-.002.003-.001.003-.002.003-.002.003-.001.003-.002.003-.002.003-.001.003-.002.003-.001.002-.002.003-.002.003-.001.003-.002.003-.002.003-.001.004-.002.003-.002.003-.001.003-.002.003-.002.003-.001.003-.002.003-.002.003-.001.003-.002.003-.002.003-.001.003-.002.003-.002.003-.002.004-.001.003-.002.003-.002.003-.001.003-.002.003-.002.003-.002.004-.001.003-.002.003-.002.003-.002.003-.001a.008.008 0 0 1 .004-.002l.003-.002.003-.002.003-.002.003-.001.004-.002.003-.002.003-.002.003-.001.004-.002.003-.002.003-.002.004-.002.003-.001.003-.002.003-.002.004-.002.003-.002.003-.002.004-.001.003-.002.003-.002.004-.002.003-.002.004-.002.003-.001.003-.002a.008.008 0 0 1 .004-.002l.003-.002.003-.002.004-.002.003-.002a.008.008 0 0 0 .004-.002l.003-.001.004-.002.003-.002.003-.002.004-.002.003-.002.004-.002.003-.002a.008.008 0 0 0 .004-.002l.003-.002a.008.008 0 0 0 .004-.002l.003-.001a.008.008 0 0 1 .004-.002l-3.856-7.01-.003.002-.004.002-.003.002-.004.002-.003.002-.004.001-.003.002-.004.002-.003.002-.004.002-.003.002-.004.002-.003.002-.004.002-.003.001-.003.002a.008.008 0 0 1-.004.002l-.003.002-.004.002-.003.002-.003.002a.008.008 0 0 0-.004.002l-.003.001-.003.002-.004.002-.003.002-.003.002-.004.002-.003.001-.003.002-.004.002-.003.002-.003.002-.004.001-.003.002-.003.002-.003.002a.008.008 0 0 0-.004.002l-.003.001-.003.002-.003.002-.004.002-.003.002-.003.001-.003.002-.003.002a.008.008 0 0 0-.004.002l-.003.001-.003.002-.003.002-.003.002-.004.001-.003.002-.003.002-.003.002-.003.001-.003.002-.003.002-.003.001a.008.008 0 0 1-.004.002l-.003.002-.003.002-.003.001-.003.002-.003.002-.003.001-.003.002-.003.002-.003.001-.003.002-.003.002-.003.001-.003.002-.003.002-.003.001-.003.002-.003.002-.003.001-.003.002-.003.001-.003.002-.003.002-.003.001-.003.002-.003.002-.003.001-.003.002-.003.001-.003.002-.003.002-.002.001-.003.002-.003.001-.003.002-.003.002-.003.001-.003.002-.003.001-.002.002-.003.001-.003.002-.003.001-.003.002-.002.002-.003.001-.003.002-.003.001-.003.002-.002.001-.003.002-.003.001-.003.002-.002.001-.003.002-.003.001-.003.002-.002.001-.003.002-.003.001-.002.002-.003.001-.003.002-.002.001-.003.002-.003.001-.002.002-.003.001-.003.001-.002.002-.003.001-.003.002-.002.001-.003.002-.002.001-.003.002-.003.001-.002.001-.003.002-.002.001-.003.002-.002.001-.003.001-.003.002-.002.001-.003.002-.002.001-.003.001-.002.002-.003.001-.002.001-.003.002-.002.001-.003.002-.002.001-.002.001-.003.002-.002.001-.003.001-.002.002-.003.001-.002.001-.002.002-.003.001-.002.001-.003.002-.002.001-.002.001-.003.001-.002.002-.002.001-.003.001-.002.002-.002.001-.003.001-.002.001-.002.002-.003.001-.002.001-.002.001-.003.002-.002.001-.002.001-.002.002-.003.001-.002.001-.002.001-.002.001-.003.002-.002.001-.002.001-.002.001-.002.002-.003.001-.002.001-.002.001-.002.001-.002.002-.002.001-.003.001-.002.001-.002.001-.002.001-.002.002-.002.001-.002.001-.003.001-.002.001-.002.001-.002.002-.002.001-.002.001-.002.001-.002.001-.002.001-.002.001-.002.001-.002.002-.002.001-.002.001-.002.001-.002.001-.002.001-.002.001-.002.001-.002.001-.002.001-.002.002-.002.001-.002.001-.002.001-.002.001-.002.001-.002.001-.002.001-.002.001-.001.001-.002.001-.002.001-.002.001-.002.001-.002.001-.002.001-.002.001-.001.001-.002.001-.002.001-.002.001-.002.001-.002.001-.001.001-.002.001-.002.001-.002.001-.001.001-.002.001-.002.001-.002.001-.001.001-.002.001-.002.001-.002.001-.001.001-.002.001-.002.001-.002.001-.001.001-.002.001h-.002l-.001.001-.002.001-.002.001-.001.001-.002.001-.002.001-.001.001-.002.001-.001.001h-.002l-.002.001-.001.001-.002.001-.001.001-.002.001-.002.001-.001.001h-.002l-.001.001-.002.001-.001.001-.002.001-.001.001-.002.001h-.001l-.002.001-.001.001-.002.001-.001.001h-.002l-.001.001-.002.001-.001.001-.002.001h-.001l-.001.001-.002.001-.001.001-.002.001h-.001l-.002.001-.001.001-.001.001H99.6l-.001.001-.001.001-.002.001h-.001l-.001.001-.002.001-.001.001h-.001l-.002.001-.001.001h-.001l-.002.001-.001.001-.001.001h-.001l-.002.001-.001.001h-.001l-.002.001-.001.001h-.001l-.001.001-.001.001h-.002l-.001.001-.001.001h-.001l-.001.001-.002.001h-.001l-.001.001-.001.001h-.001l-.001.001h-.002l-.001.001-.001.001h-.001l-.001.001-.001.001h-.001l-.001.001h-.001l-.001.001-.002.001h-.001l-.001.001h-.001l-.001.001h-.001l-.001.001-.001.001h-.001l-.001.001h-.001l-.001.001h-.001l-.001.001h-.001l-.001.001h-.001l-.001.001h-.001v.001h-.001l-.001.001h-.001l-.001.001h-.001l-.001.001h-.001l-.001.001h-.001v.001h-.001l-.001.001h-.001l-.001.001h-.001l-.001.001-.001.001h-.002l-.001.001-.001.001h-.001l-.001.001h-.001l-.001.001h-.001v.001H99.5l-.001.001-.001.001h-.001l-.001.001h-.001l-.001.001h-.001v.001h-.002v.001h-.001l-.001.001h-.001l-.001.001h-.001l-.001.001h-.001l-.001.001h-.001v.001h-.002v.001h-.002v.001h-.001l-.001.001h-.001v.001h-.002v.001h-.002v.001h-.002v.001h-.002v.001h-.001v.001h-.002v.001h-.001l1.928 3.505Zm2.828 3.01c.23-.127.736-.344 1.646-.604l-2.198-7.692c-1.19.34-2.334.752-3.304 1.286l3.856 7.01Zm1.746-.634c.705-.222 1.634-.404 2.83-.506l-.678-7.971c-1.624.138-3.154.406-4.55.845l2.398 7.632Zm2.906-.513c.896-.093 1.962-.021 3.233.303l1.974-7.753c-2.029-.516-4.052-.713-6.036-.507l.829 7.957Zm3.316.323c1.174.273 2.513.826 4.025 1.758l4.199-6.809c-2.089-1.288-4.23-2.234-6.415-2.742l-1.809 7.793Zm4.05 1.774c1.354.821 2.846 2.125 4.446 4.045l6.146-5.121c-1.999-2.399-4.138-4.366-6.443-5.764l-4.149 6.84Zm10.446-3.015-.296-3.989-3.737.277.033 3.748 4-.036Zm24.84-1.845 3.971.486.592-4.836-4.859.361.296 3.989Zm-1.395 11.385.175 3.996 3.384-.148.412-3.362-3.971-.486Zm-11.295.495-.175-3.996-3.746.164-.078 3.748 3.999.084Zm-.045 2.16-3.999-.084-.091 4.386 4.375-.312-.285-3.99Zm8.19-.585 3.972.476.577-4.811-4.834.345.285 3.99Zm-.945 7.875.311 3.988 3.27-.255.391-3.257-3.972-.476Zm-7.515.585-.31-3.988-3.557.277-.13 3.565 3.997.146Zm-.09 2.475-3.997-.146-.166 4.557 4.539-.429-.376-3.982Zm12.87-1.215 4 .072.081-4.475-4.457.42.376 3.983Zm-.225 12.42.217 3.994 3.715-.202.068-3.72-4-.072Zm-24.075 1.305-4 .036.038 4.184 4.179-.226-.217-3.994Zm-.018-31.066 24.84-1.845-.593-7.978-24.84 1.845.593 7.978Zm20.573-6.321-1.395 11.385 7.941.973 1.395-11.385-7.941-.973Zm2.4 7.876-11.295.495.35 7.992 11.295-.495-.35-7.992Zm-15.119 4.407-.045 2.16 7.998.167.045-2.16-7.998-.167Zm4.239 6.234 8.19-.585-.57-7.98-8.19.585.57 7.98Zm3.934-5.052-.945 7.875 7.943.953.945-7.875-7.943-.953Zm2.716 4.364-7.515.585.621 7.976 7.515-.585-.621-7.976Zm-11.202 4.427-.09 2.475 7.995.291.09-2.475-7.995-.291Zm4.283 6.603 12.87-1.215-.752-7.965-12.87 1.215.752 7.965Zm8.495-5.27-.225 12.42 7.999.145.225-12.42-7.999-.145Zm3.558 8.499-24.075 1.305.433 7.988 24.075-1.305-.433-7.988Zm-19.859 5.263-.315-35.055-8 .072.315 35.055 8-.072Zm62.987-3.879 2.829 2.828.019-.019.019-.019-2.867-2.79Zm-3.96 2.835-1.843-3.55-.014.007-.014.008 1.871 3.535Zm-4.95 1.845.924 3.892-.924-3.892Zm-5.49.585-.064 3.999h.001l.063-3.999Zm-5.4-.99 1.362-3.761-.019-.007-.018-.007-1.325 3.775Zm-4.725-2.79-2.634 3.01 2.634-3.01Zm-3.51-4.905 3.651-1.635-.004-.008-.004-.009-3.643 1.652Zm-1.8-6.705 3.987-.324-.002-.026-.002-.027-3.983.377Zm.405-6.39 3.894.916.003-.013-3.897-.903Zm2.34-5.85-3.445-2.033 3.445 2.033Zm3.915-4.95 2.772 2.884.014-.014.015-.014-2.801-2.856Zm5.13-3.87-1.961-3.487-.011.007-.012.007 1.984 3.473Zm6.12-2.475-.97-3.881-.025.006-.025.007 1.02 3.868Zm5.715-.45-.471 3.972.037.004.036.004.398-3.98Zm8.505 3.69-2.784 2.871.044.043.045.042 2.695-2.956Zm2.295 2.835 3.554-1.836-.01-.021-.011-.02-3.533 1.877Zm2.07 6.12-3.924.774.006.03.006.03 3.912-.834Zm.315 7.02-3.975-.442-.003.024-.002.025 3.98.393Zm-2.025 7.38 3.646 1.645.004-.008.004-.009-3.654-1.628ZM188 24.16l-3.622 1.697.022.046.023.046L188 24.16Zm-1.935-2.07-1.841 3.551.026.013.026.013 1.789-3.577Zm-2.655-.54-.249-3.992.249 3.992Zm-2.925.855 1.745 3.599.044-.021.043-.022-1.832-3.556Zm-2.7 2.07 2.928 2.725.023-.024.023-.025-2.974-2.676Zm-2.025 3.195-3.676-1.576-.016.037-.015.038 3.707 1.501Zm-.765 4.185 3.999.083.001-.042v-.041h-4Zm.585 3.51-3.624 1.691.022.049.025.049 3.577-1.789Zm1.665 2.025-2.253 3.305.085.058.089.054 2.079-3.417Zm2.34.72-.275 3.99.069.005.068.002.138-3.997Zm2.565-.405-1.304-3.782-.02.007-.021.008 1.345 3.767Zm2.43-1.305 2.421 3.184.039-.03.039-.031-2.499-3.123Zm1.89-2.07 3.348 2.189.01-.015.01-.016-3.368-2.158Zm1.62-3.24-3.772-1.332-.011.034-.011.033 3.794 1.265Zm.63-2.79-3.977-.426-.007.07-.006.071 3.99.285Zm-.09-2.295-3.908.849 3.908-.849Zm2.527 14.496c-.751.751-1.725 1.465-2.975 2.114l3.687 7.1c1.869-.971 3.535-2.147 4.945-3.557l-5.657-5.657Zm-3.003 2.129a16.83 16.83 0 0 1-4.002 1.488l1.847 7.784a24.846 24.846 0 0 0 5.898-2.202l-3.743-7.07Zm-4.002 1.488c-1.435.34-2.932.502-4.503.477l-.127 7.999a26.2 26.2 0 0 0 6.477-.692l-1.847-7.784Zm-4.502.477a12.554 12.554 0 0 1-4.103-.751l-2.723 7.522a20.544 20.544 0 0 0 6.697 1.228l.129-7.999Zm-4.14-.765c-1.203-.421-2.338-1.082-3.416-2.026l-5.268 6.021c1.802 1.577 3.817 2.776 6.035 3.554l2.649-7.549Zm-3.416-2.026c-.945-.826-1.793-1.966-2.493-3.529l-7.301 3.269c1.1 2.458 2.591 4.588 4.526 6.281l5.268-6.021Zm-2.501-3.546c-.85-1.876-1.317-3.663-1.456-5.377l-7.974.647c.221 2.727.955 5.409 2.144 8.033l7.286-3.303Zm-1.46-5.43c-.172-1.815-.058-3.507.316-5.097l-7.787-1.832c-.586 2.489-.742 5.057-.494 7.682l7.965-.753Zm.319-5.11a16.6 16.6 0 0 1 1.888-4.72l-6.89-4.066a24.6 24.6 0 0 0-2.791 6.979l7.793 1.807Zm1.888-4.72a19.14 19.14 0 0 1 3.242-4.099l-5.543-5.769a27.163 27.163 0 0 0-4.589 5.802l6.89 4.066Zm3.271-4.127a20.99 20.99 0 0 1 4.314-3.253l-3.969-6.946a29.02 29.02 0 0 0-5.946 4.486l5.601 5.713Zm4.29-3.24a21.954 21.954 0 0 1 5.18-2.094l-2.041-7.735a29.973 29.973 0 0 0-7.061 2.856l3.922 6.973Zm5.129-2.081c1.652-.413 3.064-.502 4.274-.358l.943-7.944c-2.331-.277-4.729-.066-7.157.541l1.94 7.761Zm4.347-.35c1.423.142 2.605.464 3.592.916l3.333-7.273c-1.894-.867-3.951-1.386-6.129-1.603l-.796 7.96Zm3.592.916c1.087.498 1.908 1.065 2.527 1.665l5.569-5.743c-1.361-1.32-2.97-2.373-4.763-3.195l-3.333 7.273Zm2.616 1.75c.769.7 1.212 1.293 1.458 1.755l7.065-3.753c-.775-1.458-1.861-2.755-3.133-3.914l-5.39 5.912Zm1.437 1.715c.734 1.42 1.311 3.095 1.699 5.058l7.849-1.549c-.513-2.596-1.315-5.002-2.441-7.181l-7.107 3.672Zm1.711 5.118c.385 1.805.477 3.713.252 5.744l7.951.883c.314-2.829.196-5.601-.379-8.296l-7.824 1.669Zm.247 5.793c-.194 1.956-.743 4.001-1.698 6.144l7.307 3.257c1.264-2.836 2.065-5.712 2.352-8.615l-7.961-.786Zm-1.691 6.128c-.89 1.973-2.252 3.95-4.17 5.92l5.733 5.58c2.462-2.53 4.4-5.263 5.729-8.21l-7.292-3.29Zm-3.667-12.158c-.78-1.664-2.02-3.076-3.768-3.95l-3.578 7.155c.001.001-.005-.002-.012-.008l-.007-.005a.802.802 0 0 1 .121.203l7.244-3.395Zm-3.715-3.923c-1.49-.773-3.103-1.084-4.746-.981l.499 7.984c.277-.017.434.031.564.099l3.683-7.102Zm-4.746-.981c-1.592.099-3.103.567-4.507 1.291l3.663 7.112c.576-.297 1.015-.399 1.343-.419l-.499-7.984Zm-4.421 1.247c-1.5.728-2.807 1.748-3.928 2.994l5.947 5.352c.499-.555.991-.914 1.471-1.147l-3.49-7.199Zm-3.882 2.944c-1.168 1.255-2.08 2.725-2.774 4.345l7.353 3.151c.386-.9.824-1.559 1.276-2.045l-5.855-5.451Zm-2.805 4.42c-.726 1.793-1.058 3.706-1.058 5.686h8c0-1.08.179-1.958.473-2.684l-7.415-3.002Zm-1.057 5.602c-.037 1.797.191 3.638.96 5.285l7.249-3.383c-.071-.152-.233-.652-.211-1.735l-7.998-.167Zm1.007 5.383c.677 1.354 1.637 2.619 2.989 3.541l4.507-6.61c.031.021-.118-.063-.341-.509l-7.155 3.578Zm3.163 3.653c1.279.779 2.687 1.193 4.144 1.293l.551-7.981c-.284-.019-.436-.085-.536-.146l-4.159 6.834Zm4.281 1.3c1.388.048 2.745-.17 4.049-.635l-2.691-7.534a2.876 2.876 0 0 1-1.082.174l-.276 7.995Zm4.007-.621a12.641 12.641 0 0 0 3.547-1.902l-4.841-6.369c-.42.319-.855.55-1.314.708l2.608 7.563Zm3.625-1.963a12.813 12.813 0 0 0 2.739-3.004l-6.696-4.378a4.83 4.83 0 0 1-1.04 1.135l4.997 6.247Zm2.759-3.035c.874-1.363 1.584-2.745 2.047-4.133l-7.589-2.53c-.198.591-.567 1.369-1.193 2.346l6.735 4.317Zm2.024-4.067c.447-1.267.757-2.555.848-3.836l-7.98-.57c-.028.398-.139.97-.412 1.743l7.544 2.663Zm.836-3.695c.127-1.185.098-2.389-.159-3.571l-7.817 1.699c.043.199.074.525.021 1.02l7.955.852Zm-.159-3.571a11.799 11.799 0 0 0-.961-2.784l-7.155 3.578c.098.196.208.488.299.905l7.817-1.699Zm38.197 15.43 2.994 2.652 3.066-3.462-3.868-2.536-2.192 3.346Zm-6.975 7.875-2.373 3.22 2.943 2.168 2.424-2.736-2.994-2.652Zm-10.935-8.055 2.372-3.221-6.236-4.593-.136 7.744 4 .07Zm-.135 7.695-.411 3.979 4.334.447.076-4.356-3.999-.07Zm-10.89-1.125-4 .082.073 3.533 3.516.364.411-3.979Zm-.72-35.145-.461-3.974-3.613.419.074 3.637 4-.082Zm12.51-1.35.362 3.983.022-.002.023-.002-.407-3.979Zm3.96-.405.407 3.979.008-.001.008-.001-.423-3.977Zm7.02.63-1.444 3.73.01.004.01.004 1.424-3.738Zm4.275 3.15-3.284 2.284.028.041.03.04 3.226-2.365Zm1.665 4.77-3.992.261.002.036.003.035 3.987-.332Zm-.765 5.58 3.776 1.318.003-.009.003-.009-3.782-1.3Zm-3.15 5.535-3.124-2.499-.013.016-.012.016 3.149 2.467Zm-5.265 4.68-2.129-3.387-5.275 3.316 5.211 3.416 2.193-3.345Zm-9.18-12.51-1.473-3.719-2.361.934-.159 2.535 3.993.25Zm-.45 7.2-3.993-.25-.331 5.308 5.191-1.154-.867-3.904Zm2.79-1.035-1.943-3.497-.028.016-.028.016 1.999 3.465Zm2.025-1.44 2.746 2.908-2.746-2.908Zm1.215-1.44-3.392-2.12-.02.031-.018.031 3.43 2.058Zm.54-1.125 3.904.867.096-.428v-.439h-4Zm.045-.495-3.981-.398 3.981.398Zm-.135-1.08-3.912.838.029.131.036.13 3.847-1.099Zm-.765-1.035-2.439 3.17.134.103.142.091 2.163-3.364Zm-1.845-.405v4h.071l.071-.003-.142-3.997Zm12.17 16.878-6.975 7.875 5.989 5.304 6.975-7.875-5.989-5.304Zm-1.608 7.306-10.935-8.055-4.745 6.441 10.935 8.055 4.745-6.441Zm-17.307-4.904-.135 7.695 7.999.14.135-7.695-7.999-.14Zm4.276 3.786-10.89-1.125-.822 7.958 10.89 1.125.822-7.958Zm-7.302 2.772-.72-35.145-7.999.164.72 35.145 7.999-.164Zm-4.259-31.09c5.695-.659 9.824-1.104 12.412-1.34l-.725-7.967c-2.692.245-6.903.7-12.608 1.36l.921 7.947Zm12.457-1.344c.005-.001.01-.001 0 0Zc.02-.002.025-.003 0 0Zc.036-.004.041-.004 0 0Zc.051-.005.056-.006 0 0Zc.066-.007.071-.007 0 0Zc.082-.008.087-.009 0 0Zl.107-.011.015-.002.016-.001.015-.002.015-.001.015-.002.015-.001.015-.002.015-.001.015-.002.015-.001.015-.002.015-.002.015-.001.015-.002.015-.001.014-.002.015-.001.015-.002.015-.001.014-.002.015-.001.014-.002.015-.001.015-.002.014-.001.015-.002.014-.001.014-.001.015-.002.014-.001.015-.002.014-.001.014-.002.014-.001.015-.002.014-.001.014-.002.014-.001.014-.002.014-.001.014-.001.014-.002.014-.001.014-.002.014-.001.014-.002.014-.001.014-.001.013-.002.014-.001.014-.002.014-.001.013-.001.014-.002.014-.001.013-.002.014-.001.013-.001.014-.002.013-.001.014-.001.013-.002.013-.001.014-.002.013-.001.013-.001.013-.002.014-.001.013-.001.013-.002.013-.001.013-.001.013-.002.013-.001.013-.001.013-.002.013-.001.013-.001.013-.002.013-.001.013-.001.013-.002.012-.001.013-.001.013-.001.012-.002.013-.001.013-.001.012-.002.013-.001.012-.001.013-.001.012-.002.013-.001.012-.001.013-.002.012-.001.012-.001.012-.001.013-.002.012-.001.012-.001.012-.001.012-.002.013-.001.012-.001.012-.001.012-.002.012-.001.012-.001.011-.001.012-.001.012-.002.012-.001.012-.001.012-.001.011-.001.012-.002.012-.001.011-.001.012-.001.012-.001.011-.002.012-.001.011-.001.012-.001.011-.001.011-.001.012-.002.011-.001.012-.001.011-.001.011-.001.011-.001.011-.002.012-.001.011-.001.011-.001.011-.001.011-.001.011-.001.011-.001.011-.002.011-.001.011-.001.011-.001.01-.001.011-.001.011-.001.011-.001.01-.001.011-.001.011-.002.01-.001.011-.001.011-.001.01-.001.011-.001.01-.001.011-.001.01-.001.01-.001.011-.001.01-.001.01-.001.011-.001.01-.002.01-.001.01-.001.01-.001.01-.001.01-.001.01-.001.01-.001.01-.001.01-.001.01-.001.01-.001.01-.001.01-.001.01-.001.01-.001.009-.001.01-.001.01-.001.009-.001.01-.001.01-.001.009-.001.01-.001.009-.001.01-.001.009-.001.009-.001.01-.001h.009l.01-.001.009-.001.009-.001.009-.001.009-.001.01-.001.009-.001.009-.001.009-.001.009-.001.009-.001.009-.001.009-.001.009-.001h.009l.009-.001.009-.001.008-.001.009-.001.009-.001.009-.001.008-.001.009-.001.009-.001h.008l.009-.001.008-.001.009-.001.008-.001.009-.001.008-.001h.008l.009-.001.008-.001.008-.001.009-.001.008-.001.008-.001h.008l.008-.001.009-.001.008-.001.008-.001.008-.001h.008l.008-.001.008-.001.007-.001.008-.001h.008l.008-.001.008-.001.008-.001.007-.001h.008l.008-.001.007-.001.008-.001h.007l.008-.001.007-.001.008-.001.007-.001h.008l.007-.001.008-.001.007-.001h.007l.007-.001.008-.001h.007l.007-.001.007-.001.007-.001h.007l.007-.001.007-.001.007-.001h.007l.007-.001.007-.001h.007l.007-.001.007-.001h.007l.006-.001.007-.001.007-.001h.006l.007-.001.007-.001h.006l.007-.001.006-.001h.007l.006-.001.007-.001h.006l.006-.001.007-.001h.006l.006-.001h.006l.007-.001.006-.001h.006l.006-.001.006-.001h.006l.006-.001h.006l.006-.001.006-.001h.006l.006-.001h.006l.006-.001.005-.001h.006l.006-.001h.006l.005-.001.006-.001h.006l.005-.001h.006l.005-.001h.006l.005-.001.006-.001h.005l.005-.001h.006l.005-.001h.005l.005-.001h.006l.005-.001h.005l.005-.001h.005l.005-.001h.005l.005-.001h.005l.005-.001h.005l.005-.001h.005l.005-.001h.004l.005-.001h.005l.005-.001h.004l.005-.001h.005l.004-.001h.005l.004-.001h.005l.004-.001h.005l.004-.001H217.649l.004-.001h.004l.004-.001h.005l.004-.001h.008l.004-.001h.004l.004-.001h.004l.004-.001h.008l.004-.001h.008l.003-.001h.004l.004-.001h.007l.004-.001h.004l.003-.001h.007l.004-.001h.007l.003-.001h.007l.003-.001h.007l.003-.001h.006l.003-.001h.006l.003-.001H217.815l.003-.001h.006l.003-.001h.008l.003-.001h.005l.003-.001h.007l.003-.001h.007l.003-.001h.007l.002-.001H217.884l.002-.001h.008l.002-.001h.007l.002-.001h.007l.001-.001h.01l.001-.001h.008l.001-.001H217.942l.001-.001H217.952l.001-.001h.005l-.407-3.979-.407-3.979H217.134l-.001.001h-.008l-.001.001h-.008l-.002.001h-.008l-.002.001h-.008l-.001.001H217.086l-.002.001h-.008l-.002.001h-.007l-.002.001H217.056l-.002.001h-.007l-.003.001h-.007l-.003.001h-.007l-.003.001h-.005l-.003.001H217.007l-.003.001h-.005l-.003.001h-.007l-.003.001h-.006l-.003.001h-.006l-.004.001h-.006l-.004.001h-.006l-.004.001h-.007l-.003.001h-.007l-.004.001h-.007l-.004.001h-.004l-.003.001h-.008l-.004.001h-.004l-.004.001h-.008l-.004.001h-.004l-.004.001h-.004l-.004.001h-.008l-.004.001h-.005l-.004.001h-.004l-.005.001h-.008l-.005.001h-.004l-.005.001h-.004l-.005.001h-.004l-.005.001h-.005l-.004.001h-.005l-.005.001h-.005l-.004.001h-.005l-.005.001h-.005l-.005.001h-.005l-.005.001h-.005l-.005.001h-.005l-.005.001h-.005l-.005.001h-.005l-.006.001h-.005l-.005.001h-.005l-.006.001h-.005l-.005.001-.006.001h-.005l-.006.001h-.005l-.006.001h-.005l-.006.001-.006.001h-.005l-.006.001h-.006l-.005.001h-.006l-.006.001-.006.001h-.006l-.006.001h-.006l-.006.001-.006.001h-.006l-.006.001-.006.001h-.006l-.006.001h-.006l-.006.001-.007.001h-.006l-.006.001-.007.001h-.006l-.006.001-.007.001h-.006l-.007.001-.006.001h-.007l-.006.001-.007.001h-.007l-.006.001-.007.001h-.007l-.006.001-.007.001h-.007l-.007.001-.007.001a.02.02 0 0 0-.007.001h-.007l-.006.001-.007.001h-.008l-.007.001-.007.001a.02.02 0 0 0-.007.001h-.007l-.007.001-.007.001h-.008l-.007.001-.007.001-.007.001h-.008l-.007.001-.008.001-.007.001-.007.001h-.008l-.008.001-.007.001-.008.001h-.007l-.008.001-.008.001-.007.001-.008.001h-.008l-.008.001-.008.001-.007.001-.008.001h-.008l-.008.001-.008.001-.008.001-.008.001h-.008l-.009.001-.008.001-.008.001-.008.001-.008.001h-.009l-.008.001-.008.001-.008.001-.009.001-.008.001-.009.001h-.008a.028.028 0 0 1-.009.001l-.008.001-.009.001-.008.001-.009.001-.009.001-.008.001-.009.001h-.009a.028.028 0 0 1-.009.001l-.008.001-.009.001-.009.001-.009.001-.009.001-.009.001-.009.001-.009.001-.009.001h-.009l-.009.001a.028.028 0 0 1-.009.001.028.028 0 0 1-.009.001.038.038 0 0 1-.01.001.028.028 0 0 1-.009.001l-.009.001-.009.001-.01.001-.009.001-.009.001-.01.001-.009.001-.01.001-.009.001-.01.001-.009.001-.01.001-.01.001-.009.001-.01.001-.01.001-.009.001-.01.001-.01.001-.01.001-.01.001-.01.001-.01.001-.009.001-.01.001-.01.001-.011.001-.01.001-.01.001-.01.001-.01.001-.01.001-.01.001-.011.001-.01.001-.01.001-.011.001a.034.034 0 0 1-.01.001l-.01.001-.011.001-.01.002-.011.001-.01.001-.011.001-.011.001-.01.001-.011.001-.01.001-.011.001-.011.001-.011.001-.01.002-.011.001-.011.001-.011.001-.011.001-.011.001-.011.001-.011.001a.041.041 0 0 1-.011.001l-.011.002-.011.001-.011.001-.011.001-.012.001-.011.001a.041.041 0 0 1-.011.001l-.011.002-.012.001-.011.001-.011.001-.012.001-.011.001-.012.002-.011.001-.012.001-.011.001-.012.001-.012.002-.011.001-.012.001-.012.001-.011.001-.012.001-.012.002-.012.001-.012.001-.011.001-.012.002-.012.001-.012.001-.012.001-.012.001-.012.002-.012.001-.013.001-.012.001-.012.002-.012.001-.012.001-.013.001-.012.002-.012.001-.013.001-.012.001-.013.002-.012.001-.013.001-.012.002-.013.001-.012.001-.013.001-.012.002-.013.001-.013.001-.013.002-.012.001-.013.001-.013.002-.013.001-.013.001-.013.002-.013.001-.013.001-.013.001-.013.002-.013.001-.013.002-.013.001-.013.001-.013.002-.013.001-.014.001-.013.002-.013.001-.014.001-.013.002-.013.001-.014.001-.013.002-.014.001-.013.002-.014.001-.013.001-.014.002-.014.001-.013.002-.014.001-.014.001-.014.002-.013.001-.014.002-.014.001-.014.001-.014.002-.014.001-.014.002-.014.001-.014.002-.014.001-.014.001-.014.002-.014.001-.014.002-.015.001-.014.002-.014.001-.014.002-.015.001-.014.002-.015.001-.014.001-.014.002-.015.001-.014.002-.015.001-.015.002-.014.001-.015.002-.014.001-.015.002-.015.001-.015.002-.014.001-.015.002-.015.001-.015.002-.015.002-.015.001-.015.002-.015.001-.015.002-.015.001-.015.002-.015.001-.015.002-.015.001-.016.002a.077.077 0 0 0-.015.002l-.015.001-.015.002-.016.001-.015.002-.016.001-.015.002-.015.002.814 7.958Zm3.976-.407c2.437-.259 4.083-.031 5.153.383l2.888-7.461c-2.651-1.026-5.684-1.218-8.888-.877l.847 7.955Zm5.173.391c1.293.492 2.001 1.101 2.415 1.696l6.567-4.569c-1.506-2.164-3.648-3.656-6.134-4.603l-2.848 7.476Zm2.473 1.777c.497.678.824 1.521.899 2.666l7.983-.523c-.165-2.515-.948-4.852-2.431-6.874l-6.451 4.731Zm.904 2.737c.099 1.183-.059 2.487-.561 3.947l7.565 2.601c.818-2.379 1.17-4.795.969-7.212l-7.973.664Zm-.555 3.929c-.49 1.403-1.298 2.856-2.497 4.355l6.247 4.998c1.681-2.101 2.973-4.339 3.803-6.716l-7.553-2.637Zm-2.522 4.387c-1.103 1.407-2.503 2.665-4.245 3.76l4.257 6.773c2.458-1.544 4.568-3.407 6.285-5.6l-6.297-4.933Zm-4.309 10.492 9.405 6.165 4.385-6.691-9.405-6.165-4.385 6.691Zm-10.98-16.105-.45 7.2 7.985.499.45-7.2-7.985-.499Zm4.41 11.354c1.39-.308 2.719-.781 3.921-1.475l-3.997-6.929c-.358.206-.889.424-1.659.595l1.735 7.809Zm3.865-1.443c1.033-.573 1.996-1.241 2.829-2.028l-5.493-5.816c-.246.233-.634.525-1.221.851l3.885 6.993Zm2.829-2.028c.705-.666 1.381-1.427 1.899-2.29l-6.86-4.116c-.023.037-.157.236-.532.59l5.493 5.816Zm1.861-2.228c.343-.549.837-1.406 1.052-2.378l-7.809-1.735c.017-.076.034-.14.049-.189.015-.049.029-.088.039-.116.02-.054.033-.08.03-.074l-.039.073c-.025.045-.06.104-.106.179l6.784 4.24Zm1.148-3.245c0 .039-.001.071 0 0Zl-.003.152-.004.065-.002.042a32.616 32.616 0 0 1 .034-.356l-7.961-.796-.037.384-.013.154-.007.102c-.001.02-.007.124-.007.253h8Zm.025-.097c.097-.975-.068-1.871-.269-2.577l-7.693 2.198c.015.051.009.042.001-.018a1.833 1.833 0 0 1 0-.399l7.961.796Zm-.204-2.316c-.35-1.631-1.355-2.817-2.513-3.562l-4.326 6.729a2.109 2.109 0 0 1-.548-.525 2.547 2.547 0 0 1-.436-.966l7.823-1.676Zm-2.238-3.368c-1.494-1.149-3.256-1.273-4.426-1.232l.285 7.995c.189-.007.2.012.091-.012a2.145 2.145 0 0 1-.827-.41l4.877-6.341Zm-4.283-1.234c-1.606 0-3.311.51-4.893 1.136l2.945 7.438a11.772 11.772 0 0 1 1.433-.48c.368-.092.522-.094.515-.094v-8Zm31.946-9.32 3.342-2.198L247.218 0l-3.203 5.801 3.502 1.934Zm22.725 34.56 1.418 3.74 4.666-1.768-2.742-4.17-3.342 2.198Zm-14.13 5.355-3.43 2.058 1.721 2.867 3.127-1.185-1.418-3.74Zm-3.78-6.3 3.43-2.058-1.211-2.018-2.352.078.133 3.998Zm-9.45.315-.133-3.998-2.948.098-.777 2.845 3.858 1.055Zm-1.845 6.75-1.238 3.803 3.99 1.299 1.107-4.048-3.859-1.054Zm-13.545-4.41-3.502-1.934-2.34 4.238 4.604 1.499 1.238-3.803Zm17.73-9.495-3.662-1.61-3.01 6.849 7.367-1.3-.695-3.939Zm5.355-.945.695 3.939 4.709-.831-1.65-4.489-3.754 1.381Zm-2.25-6.12 3.754-1.381-3.424-9.313-3.992 9.084 3.662 1.61Zm-4.152-17.513 22.725 34.56 6.684-4.395-22.725-34.56-6.684 4.395Zm24.65 28.622-14.13 5.355 2.835 7.481 14.13-5.355-2.835-7.481Zm-9.283 7.038-3.78-6.3-6.86 4.116 3.78 6.3 6.86-4.116Zm-7.343-8.24-9.45.315.266 7.996 9.45-.315-.266-7.996Zm-13.175 3.258-1.845 6.75 7.717 2.109 1.845-6.75-7.717-2.109Zm3.251 4.001-13.545-4.41-2.476 7.607 13.545 4.41 2.476-7.607Zm-11.281 1.327 20.025-36.27-7.004-3.867-20.025 36.27 7.004 3.867Zm14.923-7.489 5.355-.945-1.39-7.878-5.355.945 1.39 7.878Zm8.414-6.265-2.25-6.12-7.508 2.761 2.25 6.12 7.508-2.761Zm-9.666-6.349L241.56 32.9l7.324 3.219 3.105-7.065-7.324-3.219Zm25.604-15.49 2.555-3.078-6.424-5.331-.13 8.346 3.999.063Zm17.19 14.265-2.554 3.078 6.329 5.252.224-8.222-3.999-.108Zm.405-14.895.268-3.991-4.153-.279-.113 4.161 3.998.109Zm13.41.9 3.993.24.239-3.965-3.964-.266-.268 3.991Zm-2.07 34.335-1.785 3.579 5.414 2.7.364-6.039-3.993-.24Zm-17.235-8.595 1.786-3.58-6.188-3.086.409 6.903 3.993-.237Zm.63 10.62.251 3.992 3.979-.25-.237-3.979-3.993.237Zm-12.915.81-3.999-.063-.068 4.326 4.318-.271-.251-3.992Zm-1.969-34.362 17.19 14.265 5.109-6.156-17.19-14.265-5.109 6.156Zm23.743 11.295.405-14.895-7.997-.217-.405 14.895 7.997.217Zm-3.861-11.012 13.41.9.535-7.982-13.41-.9-.535 7.982Zm9.685-3.332-2.07 34.335 7.985.481 2.07-34.335-7.985-.481Zm3.708 30.996-17.235-8.595-3.571 7.159 17.235 8.595 3.571-7.159Zm-23.014-4.778.63 10.62 7.986-.474-.63-10.62-7.986.474Zm4.373 6.391-12.915.81.501 7.984 12.915-.81-.501-7.984Zm-8.665 4.864.585-37.44-7.999-.125-.585 37.44 7.999.125ZM328.667 24.7l-3.699 1.523 2.35 5.707 4.25-4.476-2.901-2.754Zm-2.025-2.205-1.883 3.529.07.037.071.034 1.742-3.6Zm-6.525 0 1.485 3.714-1.485-3.714Zm-3.285 2.025 2.64 3.004-2.64-3.004Zm-2.475 3.195-3.544-1.856-.017.033-.017.034 3.578 1.789Zm-.945 4.275 3.999.081.001-.04v-.041h-4Zm.675 3.555-3.53 1.882.038.071.041.07 3.451-2.023Zm1.89 1.89-1.846 3.549.029.014.028.014 1.789-3.577Zm2.565.54.129 3.998.064-.002.064-.005-.257-3.991Zm2.745-.675 1.59 3.67.051-.022.05-.024-1.691-3.624Zm2.43-1.62 2.703 2.948.005-.005-2.708-2.943Zm1.665-2.34 3.696 1.529 2.831-6.842-7.274 1.383.747 3.93Zm-6.39 1.215-3.981-.396-.529 5.325 5.257-1-.747-3.929Zm.72-7.245-.501-3.969-3.164.399-.316 3.174 3.981.396Zm19.62-2.475 3.96-.566-.557-3.895-3.904.492.501 3.969Zm-.27 5.625-3.888-.941-.006.023-.005.023 3.899.895Zm-1.8 5.04-3.564-1.817-.014.028-.014.028 3.592 1.761Zm-2.385 4.14 3.277 2.294.013-.019.013-.019-3.303-2.256Zm-2.115 2.745-2.966-2.684-.036.04-.035.041 3.037 2.603Zm-.9 1.035 2.828 2.828-2.828-2.828Zm-3.96 2.835-1.843-3.55-.015.007-.014.008 1.872 3.535Zm-4.95 1.845-.924-3.892.924 3.892Zm-5.49.54.127-3.998-.032-.001-.032-.001-.063 4Zm-5.4-.99 1.383-3.754-.03-.01-.029-.011-1.324 3.775Zm-4.77-2.79-2.634 3.01.015.013.016.014 2.603-3.037Zm-3.51-4.905 3.651-1.635-.004-.008-.004-.009-3.643 1.652Zm-1.755-6.705-3.991.266v.003l3.991-.269Zm.54-6.48 3.884.957.003-.013-3.887-.944Zm2.43-5.94-3.411-2.09-.012.02-.012.02 3.435 2.05Zm4.05-4.995 2.743 2.911.002-.002-2.745-2.909Zm5.31-3.825-1.897-3.522 1.897 3.522Zm6.165-2.25v-4h-.412l-.404.084.816 3.916Zm.945-.09.419 3.978.087-.009.087-.014-.593-3.955Zm2.565-.045-.216 3.994.216-3.994Zm3.735.675-1.088 3.849.039.011.039.01 1.01-3.87Zm4.5 1.89-1.943 3.496.025.014.025.014 1.893-3.524Zm4.815 3.645 2.901 2.754 2.709-2.854-2.809-2.755-2.801 2.855Zm-4.716 7.342c-.767-1.863-2.103-3.374-3.982-4.283l-3.484 7.201c.017.009.021.013.016.009a.122.122 0 0 1-.017-.015c-.004-.004 0-.001.011.017a.71.71 0 0 1 .058.117l7.398-3.046Zm-3.842-4.212c-1.545-.824-3.224-1.19-4.942-1.19v8c.562 0 .922.113 1.177.249l3.765-7.059Zm-4.942-1.19c-1.695 0-3.355.367-4.951 1.006l2.971 7.428c.804-.322 1.455-.434 1.98-.434v-8Zm-4.951 1.006a15.307 15.307 0 0 0-4.44 2.734l5.281 6.009a7.307 7.307 0 0 1 2.13-1.315l-2.971-7.428Zm-4.44 2.734c-1.387 1.219-2.508 2.683-3.378 4.344l7.087 3.712c.45-.86.979-1.526 1.572-2.047l-5.281-6.009Zm-3.412 4.411c-.942 1.883-1.367 3.933-1.367 6.064h8c0-1.05.204-1.85.523-2.486l-7.156-3.578Zm-1.366 5.982c-.039 1.871.231 3.807 1.144 5.519l7.059-3.765c-.047-.087-.227-.522-.205-1.591l-7.998-.163Zm1.223 5.66c.817 1.393 1.958 2.616 3.495 3.416l3.691-7.098c.007.003-.01-.003-.052-.045a1.591 1.591 0 0 1-.232-.319l-6.902 4.046Zm3.552 3.444c1.414.708 2.934 1.011 4.483.961l-.258-7.996c-.312.01-.501-.047-.647-.12l-3.578 7.155Zm4.611.954a12.188 12.188 0 0 0 4.078-.996l-3.181-7.34a4.21 4.21 0 0 1-1.412.353l.515 7.983Zm4.179-1.042a13.51 13.51 0 0 0 3.442-2.296l-5.406-5.897c-.414.38-.882.694-1.419.944l3.383 7.249Zm3.447-2.301c1.142-1.051 2.053-2.303 2.653-3.754l-7.392-3.059c-.12.289-.32.597-.677.926l5.416 5.887Zm-1.79-9.213-6.39 1.215 1.494 7.859 6.39-1.215-1.494-7.859Zm-1.663 5.54.72-7.245-7.961-.791-.72 7.245 7.961.791Zm-2.76-3.672 19.62-2.475-1.001-7.937-19.62 2.475 1.001 7.937Zm15.16-5.878a10.809 10.809 0 0 1-.198 4.119l7.776 1.881a18.8 18.8 0 0 0 .342-7.131l-7.92 1.131Zm-.209 4.165c-.353 1.54-.847 2.906-1.465 4.118l7.127 3.633c.943-1.848 1.649-3.841 2.135-5.961l-7.797-1.79Zm-1.493 4.174a29.43 29.43 0 0 1-2.096 3.645l6.606 4.512a37.368 37.368 0 0 0 2.673-4.636l-7.183-3.521Zm-2.07 3.607c-.802 1.146-1.398 1.905-1.804 2.355l5.932 5.367c.733-.81 1.548-1.88 2.426-3.134l-6.554-4.588Zm-1.875 2.436a152.014 152.014 0 0 1-.763.882l-.019.021a4.093 4.093 0 0 1 .09-.094l5.657 5.657c.203-.202.655-.731 1.109-1.26l-6.074-5.206Zm-.692.809c-.75.751-1.724 1.465-2.974 2.114l3.686 7.1c1.87-.971 3.536-2.147 4.945-3.557l-5.657-5.657Zm-3.003 2.129a16.813 16.813 0 0 1-4.002 1.488l1.847 7.784a24.83 24.83 0 0 0 5.898-2.202l-3.743-7.07Zm-4.002 1.488a16.831 16.831 0 0 1-4.439.434l-.254 7.996a24.834 24.834 0 0 0 6.54-.646l-1.847-7.784Zm-4.503.432a12.232 12.232 0 0 1-4.08-.744l-2.766 7.507a20.24 20.24 0 0 0 6.719 1.236l.127-7.999Zm-4.139-.765c-1.21-.424-2.372-1.093-3.491-2.052l-5.206 6.074c1.821 1.56 3.839 2.752 6.048 3.527l2.649-7.549Zm-3.46-2.026c-.945-.826-1.794-1.966-2.493-3.529l-7.302 3.269c1.1 2.458 2.592 4.588 4.527 6.281l5.268-6.021Zm-2.501-3.546c-.844-1.862-1.293-3.63-1.407-5.323l-7.982.539c.186 2.748.907 5.449 2.103 8.087l7.286-3.303Zm-1.407-5.319c-.124-1.863.027-3.61.433-5.257l-7.768-1.914c-.614 2.492-.823 5.066-.647 7.703l7.982-.532Zm.436-5.27a17.325 17.325 0 0 1 1.978-4.834l-6.87-4.1a25.368 25.368 0 0 0-2.882 7.046l7.774 1.888Zm1.953-4.794a20.21 20.21 0 0 1 3.383-4.174l-5.486-5.822a28.184 28.184 0 0 0-4.718 5.816l6.821 4.18Zm3.385-4.176a20.937 20.937 0 0 1 4.461-3.212l-3.793-7.044a28.934 28.934 0 0 0-6.158 4.437l5.49 5.819Zm4.461-3.212a18.697 18.697 0 0 1 5.085-1.856l-1.632-7.832a26.708 26.708 0 0 0-7.246 2.644l3.793 7.044Zm4.269-1.772c.27 0 .607-.036.66-.041l.704-.071-.838-7.956-.624.063-.128.012.018-.001.059-.003c.023-.001.078-.003.149-.003v8Zm1.538-.135c.197-.029.733-.061 1.756-.006l.432-7.988c-1.197-.065-2.372-.067-3.375.083l1.187 7.911Zm1.756-.006c.744.04 1.69.199 2.863.53l2.176-7.698c-1.587-.449-3.132-.741-4.607-.82l-.432 7.988Zm2.941.551c.975.254 2.159.734 3.567 1.516l3.885-6.993c-1.831-1.017-3.647-1.798-5.432-2.264l-2.02 7.741Zm3.617 1.544c1.226.658 2.531 1.627 3.906 2.976l5.603-5.71c-1.805-1.771-3.709-3.232-5.724-4.314l-3.785 7.048Zm3.807-2.633-8.415 8.865 5.802 5.508 8.415-8.865-5.802-5.508Zm6.34-.891-.296-3.989-3.737.277.033 3.748 4-.036Zm24.84-1.845 3.97.486.593-4.836-4.859.361.296 3.989Zm-1.395 11.385.175 3.996 3.384-.148.411-3.362-3.97-.486Zm-11.295.495-.175-3.996-3.746.164-.078 3.748 3.999.084Zm-.045 2.16-3.999-.084-.091 4.386 4.375-.312-.285-3.99Zm8.19-.585 3.972.476.577-4.811-4.834.345.285 3.99Zm-.945 7.875.311 3.988 3.27-.255.391-3.257-3.972-.476Zm-7.515.585-.31-3.988-3.558.277-.129 3.565 3.997.146Zm-.09 2.475-3.997-.146-.166 4.557 4.539-.429-.376-3.982Zm12.87-1.215 3.999.072.082-4.475-4.457.42.376 3.983Zm-.225 12.42.217 3.994 3.715-.202.068-3.72-4-.072Zm-24.075 1.305-4 .036.038 4.184 4.179-.226-.217-3.994Zm-.019-31.066 24.84-1.845-.592-7.978-24.84 1.845.592 7.978Zm20.574-6.321-1.395 11.385 7.94.973 1.395-11.385-7.94-.973Zm2.4 7.876-11.295.495.35 7.992 11.295-.495-.35-7.992Zm-15.119 4.407-.045 2.16 7.998.167.045-2.16-7.998-.167Zm4.239 6.234 8.19-.585-.57-7.98-8.19.585.57 7.98Zm3.934-5.052-.945 7.875 7.943.953.945-7.875-7.943-.953Zm2.716 4.364-7.515.585.621 7.976 7.515-.585-.621-7.976Zm-11.202 4.427-.09 2.475 7.995.291.089-2.475-7.994-.291Zm4.283 6.603 12.87-1.215-.752-7.965-12.87 1.215.752 7.965Zm8.495-5.27-.225 12.42 7.999.145.224-12.42-7.998-.145Zm3.558 8.499-24.075 1.305.433 7.988 24.075-1.305-.433-7.988Zm-19.859 5.263-.315-35.055-8 .072.315 35.055 8-.072Zm39.641 1.206-1.338 3.769 1.338-3.769Zm-2.52-1.305 2.337-3.246-.012-.009-.013-.009-2.312 3.264Zm-1.8-1.71-3.255 2.325.036.05.037.049 3.182-2.424Zm-.945-1.98-3.909.849.018.081.021.079 3.87-1.009Zm.135-1.98 3.738 1.424.03-.079.027-.08-3.795-1.265Zm1.125-1.62 2.561 3.073-2.561-3.073Zm1.935-.99-1.04-3.863-.019.005-.019.006 1.078 3.852Zm2.52-.225-.266 3.991.066.004.067.003.133-3.998Zm2.745.495 1.338-3.77-.055-.019-.055-.018-1.228 3.807Zm2.475 1.305-2.4 3.2.074.055.077.052 2.249-3.307Zm1.8 1.71-3.255 2.325.036.05.037.049 3.182-2.424Zm.855 3.96-3.795-1.265 3.795 1.265Zm-1.125 1.575-2.456-3.158-.053.042-.052.043 2.561 3.073Zm-1.98.99-1.04-3.863-.09.025-.089.028 1.219 3.81Zm-2.475.315.133-3.998-.133 3.998Zm5.895-11.07-2.277 3.289 5.468 3.785.781-6.604-3.972-.47Zm-2.7-1.305-1.367 3.759.067.024.069.023 1.231-3.806Zm-3.195-.675-.323 3.987h.008l.315-3.987Zm-3.195.135.599 3.955.048-.008.048-.008-.695-3.939Zm-2.745.81-3.988-.306-.522 6.81 6.194-2.876-1.684-3.628Zm2.385-31.14-.162-3.997-3.555.144-.271 3.547 3.988.306Zm13.32-.54 3.972.47.551-4.657-4.685.19.162 3.997Zm-11.172 39.475a6.039 6.039 0 0 1-1.521-.781l-4.674 6.492a13.998 13.998 0 0 0 3.519 1.828l2.676-7.539Zm-1.546-.799a4.21 4.21 0 0 1-.93-.87l-6.364 4.848a12.171 12.171 0 0 0 2.67 2.55l4.624-6.528Zm-.857-.771a2.02 2.02 0 0 1-.33-.665l-7.74 2.019a9.992 9.992 0 0 0 1.56 3.296l6.51-4.65Zm-.291-.505c-.001-.002.008.039.003.109a.665.665 0 0 1-.039.185l-7.476-2.848a7.412 7.412 0 0 0-.306 4.253l7.818-1.699Zm.021.135a.572.572 0 0 1-.071.139c-.031.045-.051.059-.038.049l-5.122-6.146a7.537 7.537 0 0 0-2.359 3.428l7.59 2.53Zm-.109.188c.061-.052.187-.137.453-.211l-2.157-7.704c-1.235.346-2.399.92-3.418 1.769l5.122 6.146Zm.414-.201c.308-.083.703-.13 1.214-.096l.532-7.982a11.669 11.669 0 0 0-3.826.353l2.08 7.725Zm1.347-.089a5.966 5.966 0 0 1 1.65.304l2.456-7.614a13.972 13.972 0 0 0-3.84-.686l-.266 7.996Zm1.54.266a5.24 5.24 0 0 1 1.413.736l4.8-6.4a13.233 13.233 0 0 0-3.537-1.875l-2.676 7.539Zm1.564.843c.425.289.661.542.794.728l6.51-4.65c-.767-1.074-1.731-1.962-2.806-2.693l-4.498 6.615Zm.867.827c.169.221.207.353.218.405l7.818-1.699c-.289-1.328-.881-2.516-1.672-3.554l-6.364 4.848Zm.218.405c.007.03.001.021 0 0Za.58.58 0 0 1 .024-.134l7.59 2.53a7.685 7.685 0 0 0 .204-4.095l-7.818 1.699Zm.024-.134a.772.772 0 0 1 .214-.318l4.912 6.315a7.275 7.275 0 0 0 2.464-3.467l-7.59-2.53Zm.109-.233c-.034.029-.154.118-.459.2l2.08 7.725c1.255-.338 2.455-.908 3.501-1.779l-5.122-6.146Zm-.638.253c-.256.082-.616.144-1.123.127l-.266 7.996c1.293.043 2.583-.105 3.827-.504l-2.438-7.619Zm-1.123.127a5.081 5.081 0 0 1-1.54-.312l-2.676 7.539c1.281.455 2.602.724 3.95.769l.266-7.996Zm8.039-10.361c-1.14-.789-2.401-1.387-3.746-1.822l-2.462 7.612c.695.225 1.234.497 1.654.788l4.554-6.578Zm-3.61-1.775a16.055 16.055 0 0 0-4.247-.904l-.63 7.975c.811.064 1.519.22 2.143.447l2.734-7.518Zm-4.239-.903a16.461 16.461 0 0 0-4.213.183l1.39 7.878a8.467 8.467 0 0 1 2.177-.087l.646-7.974Zm-4.117.167a14.023 14.023 0 0 0-3.83 1.137l3.368 7.256a6.036 6.036 0 0 1 1.66-.483l-1.198-7.91Zm1.842 5.07 2.385-31.14-7.976-.611-2.385 31.14 7.976.611Zm-1.441-27.449 13.32-.54-.324-7.993-13.32.54.324 7.993Zm9.186-5.006-3.87 32.715 7.944.94 3.87-32.715-7.944-.94Z" mask="url(#b)" style="fill: rgb(48, 48, 48);" class="fills"/></g></g></g></g></svg>